<?xml version="1.0" encoding="UTF-8"?>
<svg id="Layer_2" data-name="Layer 2" xmlns="http://www.w3.org/2000/svg" viewBox="0 0 204.03 61.2">
  <defs>
    <style>
      .cls-1 {
        fill: #fff;
      }
    </style>
  </defs>
  <g id="Reference_Material" data-name="Reference Material">
    <g>
      <path class="cls-1" d="M0,26.24c0-2.84,2-6.2,6.24-8.24-1.16-1.24-2-3.2-2-5.56C4.24,7.36,8.84,1.96,14.36,1.96c3.72,0,5.36,1.76,5.36,4.76,0,3.96-2.44,5.84-4.68,5.84-.88,0-1.28-.32-1.44-.72.52-1.08.8-2.16.8-3.2,0-1.52-.52-2.04-1.16-2.04-1.44,0-3.08,2.84-3.08,5.92,0,1.4.32,2.96.72,4,.88-.2,2.2-.32,2.96-.32,1.52,0,1.92.44,1.92,1,0,2.28-1.88,4.52-3.84,4.52-.76,0-1.84-.44-2.68-1.08-1.08,1.12-1.8,2.84-1.8,3.96,0,2,1.08,3.28,3.44,3.28,3.76,0,8.76-3.6,11.08-7.12.84,0,1.52.32,1.52,1.28,0,2.56-7,11.16-15.4,11.16-5,0-8.08-2.84-8.08-6.96Z"/>
      <path class="cls-1" d="M36.48,25.8c0,.44.2.6.56.6,1.24,0,3.48-2.28,5.56-5.52.76,0,1.52.56,1.52,1.36,0,3.04-6.44,9.32-10.48,9.32-2.32,0-2.96-1.48-2.96-3.56v-.48c-2.24,2.64-5.2,4.56-7.6,4.56-1.92,0-3.16-1.08-3.16-3.08,0-2.68,1.28-7.32,1.6-9,.48-2.6.92-5.16,1.28-7.88.72-5.4,3.56-8.64,6.72-8.64,1.72,0,2.8.8,2.8,2.84,0,1.76-.8,3.72-3.8,9.36-1.08,3.88-2.56,9.44-2.56,10.44,0,.44.2.6.56.6.88,0,2.92-1.48,4.84-4.16,1-5.32,1.72-9.92,2.08-12.72.96-7.44,3.2-9.84,6.24-9.84s5.6,2.12,5.6,5.76c0,3.4-3.6,8.68-8,13.6-.56,3.24-.8,5.44-.8,6.44ZM41,6.88c0-1.08-.52-2.48-1.36-2.48-.44,0-.68.2-.92,2.32-.16,1.48-.84,7.24-.84,7.24,2.12-2.8,3.12-5.56,3.12-7.08Z"/>
      <path class="cls-1" d="M42.16,19.96c0-2.36,3.56-6.56,6.04-6.56,1.84,0,2,1,2,2.56,0,1.04-.68,2.72-1.4,4.4-1.12,2.76-1.64,4.04-1.64,4.96,0,.44.2.6.56.6.56,0,2.36-1.28,5.04-5.08.76,0,1.56.64,1.56,1.44,0,2.52-6.36,9.28-10.04,9.28-2.36,0-3.16-1.04-3.16-3.24,0-1.76.44-3.4,1.44-5.88-.32-.76-.4-1.68-.4-2.48ZM49.68,2.84c1.6,0,3.4,1.76,3.4,3,0,.96-.76,2.52-2.68,4.88-1.56,0-2.68-1.16-2.68-3.48,0-3.24.68-4.4,1.96-4.4Z"/>
      <path class="cls-1" d="M52.12,19.16c0-2.36,3.56-6.56,6.04-6.56,1.36,0,1.72.48,1.72,1.68,0,1-.52,3.8-1.6,5.76,2.92-5.04,5.68-6.84,7.44-6.84s2.76,1.2,2.76,2.76c0,1.08-.32,2.48-1.16,4.4-.72,1.76-2,4.6-2,5.6,0,.44.2.6.56.6.8,0,3.32-2.04,5.8-5.6.76,0,1.56.52,1.56,1.32,0,2.52-6.76,9.28-10.44,9.28-2.36,0-3.16-1.04-3.16-3.24,0-2.64,2.04-6.68,2.04-7.56,0-.32-.16-.48-.48-.48-.36,0-1.68.6-3.24,2.76-.56,3.08-.8,4.88-.92,7.6-.4.4-.68.52-1.6.52-2.24,0-3.88-2.12-3.92-4.52,0-1.52.32-3.16,1-5-.32-.76-.4-1.68-.4-2.48Z"/>
      <path class="cls-1" d="M71.64,31.03c1.64,2.52,3.44,4.56,4.72,4.56.6,0,.96-.4,1.12-1.56.12-.92.44-3.6.72-6.6-.52,1-2.28,2.96-4.16,2.96-2.28,0-4-1.6-4-5.24,0-5.4,4.96-10.8,8.64-10.8.56,0,.84.08,1.04.28.16-1.44.24-3.08.24-4.04.32-.36,1.08-.56,1.52-.56,2.52,0,4.48,1.84,4.48,3.24,0,1.56-.72,3-1.32,5.92-.76,3.56-1.08,8.92-1.76,13.64-.76,5.4-4.24,7.24-7.4,7.24s-7.12-2.32-7.12-5.48c0-1.64,1.24-3.44,3.28-3.56ZM75.92,24.04c0,1.48.4,1.68.96,1.68.64,0,1.08-.24,1.64-.8.32-2.44.68-5.76,1-7.64-2.28,1.24-3.6,4.48-3.6,6.76Z"/>
      <path class="cls-1" d="M96.2,10.8c0-2.76,1.56-8.16,5.08-8.16.44,0,.92.24,1.08.64.6-1,1.64-1.68,3.12-1.68,2.4,0,4.04,2,4.04,4.16,0,2.92-1.4,5.48-5.76,10.92,1.04,1.8,2.48,3.84,3.68,5.28,1.84-2.16,3.32-4.88,4-6.92-.32.04-1,.08-1.4.08-.84,0-1.16-.68-1.16-1.2,0-1.44,1-2.52,2.4-3.08,1.88-.76,6.28-1.6,9.52-1.6,2.36,0,3.32.56,3.32,2.2,0,1.88-2.08,5.44-3.4,5.44-.56,0-1.04-.32-1.32-1.48-.8-.24-2.48-.36-3.36-.4-1.44,3.76-3.92,7.56-6.24,10.2,5.12,6.68,6.84,7.64,9.64,7.64.72,0,1.64-.2,2.48-.48.48.16.72.68.72,1.16,0,2.72-3.4,4.6-6.24,4.6-3.84,0-5.56-.84-11.12-8.32-2.44,1.96-5.16,2.92-7.4,2.92-3.68,0-5.92-2.16-5.92-5.48,0-3,1.56-5.68,5.84-9.8-1.08-1.96-1.6-4.48-1.6-6.64ZM103,25.88c-1.16-1.48-2.12-2.84-3.08-4.56-1,1.44-1.6,2.8-1.6,3.96,0,.88.4,1.64,1.8,1.64.84,0,2.12-.48,2.88-1.04ZM100.92,8.76c0,1.44.4,3.28,1.2,4.68,1.84-2.52,2.72-4.28,2.72-5.36,0-.8-.48-1.16-1.92-1.6-.8-.28-1.08-.6-1.08-1.24-.6.92-.92,2.44-.92,3.52Z"/>
      <path class="cls-1" d="M136.52,19.72c.68,0,1.28.2,1.64.64v.76c0,5.44,2.48,7.84,5.16,7.84,1.52,0,2.72-1.4,2.72-3.44,0-1.32-.24-2.4-3.96-7.12-2.12-2.72-2.8-4.96-2.8-7.44,0-4.44,3.44-9.2,8.48-9.2,4.32,0,6.04,2.48,6.04,4.88,0,1.56-.84,2.84-1.72,3.28-2.12-1.76-3.6-2.56-5.08-2.56-.88,0-1.6.76-1.6,1.92,0,1.28.68,2.84,3,6.08,3.36,4.76,3.92,6.44,3.92,8.8,0,4.52-4.16,9.92-10.88,9.92-6.16,0-9.28-3.64-9.28-8.04,0-2.92,1.56-6.32,4.36-6.32Z"/>
      <path class="cls-1" d="M169.04,17.88c0,1.92-.4,3.48-1.24,5.68.12.12.4.28.8.28,1.16,0,2.32-.92,3.64-3.04.72,0,1.56.6,1.56,1.44,0,1.68-2.68,5.44-6.08,5.44-.72,0-1.16-.12-1.6-.4-1.92,2.6-4.04,4.12-6.84,4.12s-5.08-1.96-5.08-5.88c0-6.64,4.4-12.8,8.64-12.8,1.04,0,2.32.44,2.36,1.76.4-.4.76-.56,1.4-.56,1.64,0,2.44,2.16,2.44,3.96ZM161.32,26.56c.96,0,1.92-.92,2.64-2.72-.32-1.24-.44-2.4-.44-3.48,0-1.36.28-3.48.88-4.64-2.48,1.16-4.52,5.04-4.52,8.32,0,1.96.72,2.52,1.44,2.52Z"/>
      <path class="cls-1" d="M171.56,19.16c0-2.36,3.56-6.56,6.04-6.56,1.36,0,1.72.48,1.72,1.68,0,1-.52,3.8-1.6,5.76,2.92-5.04,5.68-6.84,7.44-6.84s2.76,1.2,2.76,2.76c0,1.08-.32,2.48-1.16,4.4-.72,1.76-2,4.6-2,5.6,0,.44.2.6.56.6.8,0,3.32-2.04,5.8-5.6.76,0,1.56.52,1.56,1.32,0,2.52-6.76,9.28-10.44,9.28-2.36,0-3.16-1.04-3.16-3.24,0-2.64,2.04-6.68,2.04-7.56,0-.32-.16-.48-.48-.48-.36,0-1.68.6-3.24,2.76-.56,3.08-.8,4.88-.92,7.6-.4.4-.68.52-1.6.52-2.24,0-3.88-2.12-3.92-4.52,0-1.52.32-3.16,1-5-.32-.76-.4-1.68-.4-2.48Z"/>
      <path class="cls-1" d="M193.92,22.36c0,.84-.36,1.44-1.04,2.2.32,1.76,1.68,2.96,2.6,2.96.4,0,.84-.24.84-.92,0-2.04-2.32-6.88-2.32-9.36,0-3.36,2.72-5.68,6.36-5.68,2.32,0,3.68,1,3.68,2.92,0,.84-.36,1.68-.84,2.16-.76-.32-1.48-.48-2.12-.48-.84,0-1.28.24-1.28.96,0,1.8,2.28,5.12,2.28,8.04,0,4.84-4.12,6.72-7.72,6.72-3.12,0-5.56-2.12-5.56-6.08,0-2.36.64-6.24,2.6-6.24,1.4,0,2.52,1.8,2.52,2.8Z"/>
    </g>
    <path class="cls-1" d="M63.11,35.2c.79,1.23.35,3.49-1.9,4.94-3.54,2.27-7.75,2.33-31.33.29-9.64-.85-13.15-.19-16.77,1.84-.6,0-1.21-.36-1.73-1.16-1.28-1.98-.22-4.11,1.61-5.28,2.57-1.65,4.58-1.96,14.93-1.41,10.47.62,24.89,1.12,34.87.39.12.07.26.29.33.39Z"/>
    <g>
      <path class="cls-1" d="M57.37,45.82c2.91,0,4.29,1.48,4.29,2.97,0,1.76-1.02,2.47-2.25,2.47-.41,0-.66-.06-.96-.14-.22-1.02-.69-1.51-2.01-1.95-.11.25-.17.63-.17.96,0,.71.14.88,3.21,2.86,1.73,1.07,2.33,1.9,2.33,3.49,0,2.33-1.76,4.5-5.3,4.5-2.88,0-4.83-.88-4.83-3.19,0-1.4.85-2.31,2.03-2.31.19,0,.41,0,.63.08,1.1,1.98,1.73,2.44,2.53,2.44.55,0,.77-.3.77-.63,0-.36-.41-.74-3.27-2.72-1.54-1.1-2.06-2.12-2.06-3.63,0-1.32.52-2.66,1.62-3.46.74-1.26,1.57-1.76,3.43-1.76Z"/>
      <path class="cls-1" d="M63.6,49.58c-.19-.66-.3-1.35-.3-1.87,0-1.1,1.21-1.9,3.32-1.9,1.57,0,1.7.44,1.7,1.15l-.14,10c.52.3.8.63.8,1.1,0,1.87-1.43,2.88-3.35,2.88-1.81,0-2.14-.44-2.14-2.91,0-1.37.06-3.52.06-5.25.03-1.04.03-2.11.05-3.21Z"/>
      <path class="cls-1" d="M78,46.39c.52-.36.99-.49,1.73-.49,1.32,0,2.17.52,2.17,1.79,0,2.36,0,9.45-.44,11.65-.19,1.18-.93,1.62-2.33,1.62s-1.48-.71-1.62-2.66c-1.07-1.84-2.09-3.65-3.19-5.41,0,1.98-.05,4.75-.27,6.26-.14,1.18-.88,1.79-2.22,1.79-.63,0-1.13-.19-1.26-.63,0-1.87-.06-6.81-.06-10.55-.22-.66-.38-1.46-.38-1.98,0-1.07,1.21-1.87,3.32-1.87,1.02,0,1.51.22,1.79.63.6.82,2.06,3.54,2.75,4.81,0-1.65.03-4.23.03-4.94Z"/>
      <path class="cls-1" d="M91.27,51.86c-.74,0-1.18-.14-1.48-.27-.3-1.62-.52-1.98-1.32-2.2-.36,1.15-.49,3.82-.49,4.67,0,2.53.49,3.19,3.85,3.19.19,0,.91-.03,1.21-.03.14.22.22.69.22.91,0,1.73-1.35,2.83-3.9,2.83-3.76,0-5.96-1.37-5.96-6.15,0-4.18.8-6.89,3.32-7.61,1.13-.91,2.33-1.37,3.74-1.37,2.12,0,3.08,1.13,3.08,2.8,0,2.09-.8,3.24-2.25,3.24Z"/>
      <path class="cls-1" d="M102.81,60.59c-.77.16-1.81.22-3.71.22-.77,0-1.26,0-1.79-.08-1.21-.14-2.55-.99-2.55-1.95,0-1.37.03-3.6.11-5.47.03-1.1.06-2.23.08-3.41-.3-.77-.38-1.29-.38-2.09,0-1.21.66-1.81,3.3-1.81,1.48,0,5.55.08,6.51.08.3.3.47,1.04.47,1.57,0,1.54-.69,2.17-1.98,2.25-.58.08-2.25.11-3.54.11l-.08,2.55c1.18-.11,3.68-.11,4.07-.11.19.25.3.6.3,1.02,0,1.4-.58,2.12-1.46,2.2-.38.08-1.57.03-2.97.11l-.03,1.54,4.78.03c.22.3.3.58.3.99,0,1.35-.58,2.12-1.43,2.25Z"/>
      <path class="cls-1" d="M114.4,52.85c-.52.3-.88.41-1.32.41-1.07,0-1.65-.6-1.65-1.68,1.02-.91,3.43-3.63,4.86-5.71.19-.03.44-.06.66-.06,1.48,0,2.14,1.29,2.14,2.77,0,.03,0,.33-.11,8.52.8.19,1.13.63,1.13,1.18,0,1.87-1.26,2.55-3.35,2.55-.6,0-4.34-.08-4.64-.08-.3-.36-.44-.82-.44-1.35,0-.99.77-1.65,2.61-1.95,0-1.24.03-2.39.06-3.24.03-.49.03-.96.06-1.37Z"/>
      <path class="cls-1" d="M131.68,56.61c0,2.64-1.84,4.51-5.69,4.51-3.3,0-5.05-1.76-5.05-4.2,0-1.73.8-2.28,1.92-3.54-.8-.96-1.24-1.76-1.24-3.16,0-1.18.38-2.39,1.79-3.05,1.02-1.07,1.92-1.4,3.38-1.4,2.55,0,4.64,1.51,4.64,3.85,0,1.46-.52,2.75-1.59,4.09,1.54,1.24,1.84,1.87,1.84,2.91ZM126.38,57.98c.55,0,.93-.3.93-.77,0-.63-.33-.85-2.14-2.09-.22.55-.25.8-.25,1.35,0,.88.52,1.51,1.46,1.51ZM127.2,52.22c.22-.74.33-1.18.33-1.68,0-.74-.36-1.13-1.76-1.57-.19.33-.27.74-.27,1.18,0,.63.25.96,1.7,2.06Z"/>
      <path class="cls-1" d="M137.34,52.38c.49-.14,1.57-.22,2.31-.22,1.21,0,3.65.44,3.65,3.41,0,3.74-2.53,5.55-5.41,5.55s-5.05-1.76-5.05-7.14c0-3.74.82-6.29,3.13-6.95,1.04-.82,2.06-1.26,3.6-1.26,1.79,0,3.32,1.13,3.32,2.75s-.91,2.47-2.2,2.47c-.47,0-.91-.06-1.21-.19-.22-1.18-.88-1.46-1.84-1.76-.22.8-.3,2.47-.3,3.35ZM137.34,54.85c0,2.64.36,2.88,1.62,3.21.27-.52.41-1.13.41-1.81s-.58-1.04-2.03-1.4Z"/>
      <path class="cls-1" d="M148.39,51.75c4.83.22,5.69,2.25,5.69,4.31,0,2.77-1.73,5.14-5.69,5.14-2.97,0-4.37-1.24-4.37-2.83,0-1.18.66-2.33,1.84-2.42,1.07,1.35,2.01,2.06,2.97,2.06.47,0,.8-.38.8-1.13,0-.99-1.32-1.73-4.34-2.39-.36-.49-.55-1.76-.55-2.39,0-.82.11-3.57.11-4.45.08-1.15.52-1.62,1.29-1.62.52,0,3.08.06,4.26.06,1.02,0,1.98-.11,2.86-.3.41.27.69.91.69,1.59,0,1.7-1.15,2.88-2.83,2.88-.99,0-2.06-.06-2.72-.14v1.62Z"/>
    </g>
    <path class="cls-1" d="M200.22,36.59c.5,2.69-1.56,4.89-5.75,5.67-3.2.59-8.87.41-27.79-1.33-7.13-.69-13.2-.6-17.89.01-.51-.29-.86-.81-1.03-1.69-.34-1.82,1.45-3.38,3.89-3.83,3.13-.58,6.23-.64,13.08-.42,10.49.32,24.8.59,34.78-.16.33.39.6,1.12.71,1.75Z"/>
  </g>
</svg>