<?xml version="1.0" encoding="UTF-8"?>
<svg id="Layer_2" xmlns="http://www.w3.org/2000/svg" version="1.1" viewBox="0 0 2294 903.7">
  <!-- Generator: Adobe Illustrator 30.1.0, SVG Export Plug-In . SVG Version: 2.1.1 Build 136)  -->
  <defs>
    <style>
      .st0 {
        fill: #f5cf1a;
      }

      .st1 {
        fill: #fff;
      }

      .st2 {
        fill: #ee3131;
        stroke: #000;
        stroke-miterlimit: 10;
        stroke-width: 1.2px;
      }

      .st3 {
        fill: #3853a3;
      }

      .st4 {
        fill: #f47e20;
      }
    </style>
  </defs>
  <g id="Layer_1-2">
    <g>
      <path class="st1" d="M600.9,433V110.7h38.7v139.7h161.4V110.7h38.2v322.4h-38.2v-148.4h-161.4v148.4h-38.7Z"/>
      <path class="st1" d="M946.5,433v-154.7l-109.7-167.7h44l86,130.5,90.4-130.5h42.1l-114.1,167.2v155.1h-38.7Z"/>
      <path class="st1" d="M1096.8,433V110.7h83.1c12.6,0,25.6,1.1,39.2,3.1,13.5,2.1,26.1,5.9,37.7,11.4,11.6,5.5,22.2,12.5,31.9,21,9.7,8.5,18,18.8,24.9,30.7,6.9,11.9,12.4,25.4,16.4,40.4,4,15,6,31.7,6,50s-2.6,42.8-7.7,60.7c-5.2,17.9-12.3,33.4-21.5,46.6-9.2,13.2-20.1,24.2-32.6,32.9s-26.1,15.1-40.6,19.3c-7.4,2.3-16.2,3.9-26.3,4.8-10.2,1-19.3,1.5-27.3,1.5h-83.1ZM1135.4,399.7h39.6c7.1,0,15.1-.4,24.2-1.2,9-.8,17.2-2.7,24.7-5.6,9.7-4.2,18.8-9.7,27.3-16.4,8.5-6.8,16.1-15.1,22.7-24.9,6.6-9.8,11.8-21.5,15.5-35,3.7-13.5,5.6-29.3,5.6-47.4,0-28-4.3-50.6-12.8-67.7-8.5-17.1-20.2-30.4-35-40.1-9.3-6.1-20.4-10.6-33.1-13.3-12.7-2.7-25.1-4.1-37-4.1h-41.6v255.7h0Z"/>
      <path class="st1" d="M1354.9,433V110.7h103.4c36.1,0,62.7,8.1,79.8,24.2,17.1,16.1,25.6,37.4,25.6,63.8s-2,26.5-6,37c-4,10.5-9.7,19.3-16.9,26.6-7.2,7.2-15.8,13.1-25.6,17.6-9.8,4.5-20.4,7.7-31.7,9.7l88,143.6h-44l-87-141.1h-46.9v141.1h-38.7,0ZM1393.6,258.6h62.3c44.8,0,67.2-20,67.2-59.9s-5.5-32.1-16.4-41.1c-11-9-26.8-13.5-47.4-13.5h-65.7v114.6h0Z"/>
      <path class="st1" d="M1540.5,433l124.2-322.4h23.7l126.6,322.4h-42.1l-38.2-99.6h-117l-36.7,99.6h-40.6ZM1630.4,299.1h91.8l-46.9-123.2-44.9,123.2Z"/>
      <path class="st1" d="M1837.2,318c0,27.4,7.1,48.7,21.3,64,14.2,15.3,33.8,23,59,23s45.3-7.4,59.4-22.2c14.2-14.8,21.3-36.4,21.3-64.8V110.7h38.7v214.6c0,19-3.3,35.6-9.9,49.8-6.6,14.2-15.5,26-26.6,35.5-11.1,9.5-23.9,16.7-38.4,21.5-14.5,4.8-29.7,7.2-45.4,7.2s-32.3-2.4-46.6-7.2c-14.3-4.8-26.8-12-37.5-21.5-10.6-9.5-18.9-21.3-24.9-35.5-6-14.2-8.9-30.8-8.9-49.8V110.7h38.7v207.4h0Z"/>
      <path class="st1" d="M2294,374.5c-4.2,7.7-9.4,15.5-15.5,23.2-6.1,7.7-13.4,14.7-21.8,20.8-8.4,6.1-18.1,11.1-29,15-11,3.9-23.4,5.8-37.2,5.8s-36.7-3.1-52.9-9.4c-16.3-6.3-30.4-16.1-42.5-29.5s-21.6-30.5-28.5-51.5c-6.9-20.9-10.4-46.2-10.4-75.9s3.7-55.7,11.1-77.1c7.4-21.4,17.2-38.9,29.2-52.4s25.8-23.4,41.1-29.7,30.9-9.4,46.6-9.4c24.5,0,46.2,6,65.2,17.9,19,11.9,33.2,28,42.5,48.3l-31.4,18.9c-2.9-5.8-6.7-11.7-11.4-17.6-4.7-6-10.1-11.3-16.4-15.9-6.3-4.7-13.2-8.5-20.8-11.6-7.6-3.1-15.7-4.6-24.4-4.6-28.4,0-50.5,11.6-66.5,34.8s-23.9,56.2-23.9,99.1,2.4,39.6,7.2,55.8c4.8,16.3,11.4,30,19.8,41.1,8.4,11.1,18.3,19.5,29.7,25.1,11.4,5.6,23.8,8.5,37,8.5s17.6-1.3,24.9-3.9c7.2-2.6,13.9-6,19.8-10.4,6-4.4,11.3-9.5,15.9-15.5,4.7-6,8.9-12.2,12.8-18.6l29.5,18.9h0Z"/>
      <path class="st1" d="M606.7,722.5c9.3,13.5,21.6,23.7,36.7,30.5,15.1,6.8,30.6,10.2,46.4,10.2s16.3-1,23.9-3.1c7.6-2.1,14.2-5.3,19.8-9.7,5.6-4.3,10.2-10.1,13.5-17.2,3.4-7.1,5.1-15.5,5.1-25.1s-2.1-17-6.3-23.9c-4.2-6.9-9.8-13.1-16.9-18.6-7.1-5.5-15.2-10.4-24.2-14.7-9-4.3-18.4-8.6-28-12.8-11-4.8-21.8-9.7-32.4-14.7-10.6-5-20.2-11-28.8-18.1-8.5-7.1-15.5-15.3-20.8-24.7-5.3-9.3-8-20.8-8-34.3s2.8-26,8.5-36.5c5.6-10.5,13.2-19.2,22.7-26.1,9.5-6.9,20.3-12.1,32.4-15.5,12.1-3.4,24.7-5.1,37.9-5.1,20.3,0,39.8,4,58.5,12.1,18.7,8.1,33.8,20.8,45.4,38.2l-29.5,23.2c-8.4-11.6-19.1-21-32.1-28.3s-27.3-10.9-42.8-10.9-33.8,4.3-44.2,12.8c-10.5,8.5-15.7,19.9-15.7,34.1s1.8,14.9,5.6,20.5c3.7,5.6,8.9,10.8,15.5,15.5,6.6,4.7,14.6,9.1,23.9,13.3,9.3,4.2,19.8,8.9,31.4,14,11,4.8,21.8,10,32.4,15.5s20.1,11.9,28.5,19.3c8.4,7.4,15.1,16.1,20.3,26.1,5.2,10,7.7,21.9,7.7,35.8s-2.8,30.6-8.5,42.5c-5.6,11.9-13.3,21.8-23,29.5-9.7,7.7-20.9,13.4-33.6,16.9-12.7,3.5-26.3,5.3-40.8,5.3s-21.8-1.2-32.6-3.6c-10.8-2.4-21.1-5.9-30.9-10.4-9.8-4.5-18.8-10.1-27.1-16.7-8.2-6.6-15.1-14.1-20.5-22.5l30.5-22.7h0Z"/>
      <path class="st1" d="M879.3,791.6v-154.7l-109.7-167.7h44l86,130.5,90.4-130.5h42.1l-114.1,167.2v155.1h-38.7Z"/>
      <path class="st1" d="M1028.2,722.5c9.3,13.5,21.6,23.7,36.7,30.5,15.1,6.8,30.6,10.2,46.4,10.2s16.3-1,23.9-3.1c7.6-2.1,14.2-5.3,19.8-9.7,5.6-4.3,10.2-10.1,13.5-17.2,3.4-7.1,5.1-15.5,5.1-25.1s-2.1-17-6.3-23.9c-4.2-6.9-9.8-13.1-16.9-18.6-7.1-5.5-15.2-10.4-24.2-14.7s-18.4-8.6-28-12.8c-11-4.8-21.8-9.7-32.4-14.7-10.6-5-20.2-11-28.8-18.1-8.5-7.1-15.5-15.3-20.8-24.7-5.3-9.3-8-20.8-8-34.3s2.8-26,8.5-36.5c5.6-10.5,13.2-19.2,22.7-26.1,9.5-6.9,20.3-12.1,32.4-15.5,12.1-3.4,24.7-5.1,37.9-5.1,20.3,0,39.8,4,58.5,12.1,18.7,8.1,33.8,20.8,45.4,38.2l-29.5,23.2c-8.4-11.6-19.1-21-32.1-28.3s-27.3-10.9-42.8-10.9-33.8,4.3-44.2,12.8c-10.5,8.5-15.7,19.9-15.7,34.1s1.8,14.9,5.6,20.5c3.7,5.6,8.9,10.8,15.5,15.5,6.6,4.7,14.6,9.1,23.9,13.3,9.3,4.2,19.8,8.9,31.4,14,10.9,4.8,21.8,10,32.4,15.5s20.1,11.9,28.5,19.3c8.4,7.4,15.1,16.1,20.3,26.1,5.2,10,7.7,21.9,7.7,35.8s-2.8,30.6-8.5,42.5c-5.6,11.9-13.3,21.8-23,29.5-9.7,7.7-20.9,13.4-33.6,16.9-12.7,3.5-26.3,5.3-40.8,5.3s-21.8-1.2-32.6-3.6c-10.8-2.4-21.1-5.9-30.9-10.4-9.8-4.5-18.8-10.1-27.1-16.7-8.2-6.6-15.1-14.1-20.5-22.5l30.4-22.7h0Z"/>
      <path class="st1" d="M1295.4,791.6v-289h-100.1v-33.4h238.3v33.4h-100.1v289h-38.2,0Z"/>
      <path class="st1" d="M1435.6,791.6v-322.4h188v33.4h-149.3v103.4h106.8v33.3h-107.3v118.9h161.4v33.3h-199.6,0Z"/>
      <path class="st1" d="M1642.4,791.6v-322.4h45.4l93.8,248.9,96.7-248.9h44.9v322.4h-37.2v-246l-100.1,251.3h-7.7l-98.1-250.8v245.5h-37.7,0Z"/>
      <path class="st1" d="M1965.8,722.5c9.3,13.5,21.6,23.7,36.7,30.5,15.1,6.8,30.6,10.2,46.4,10.2s16.4-1,23.9-3.1c7.6-2.1,14.2-5.3,19.8-9.7,5.6-4.3,10.1-10.1,13.5-17.2,3.4-7.1,5.1-15.5,5.1-25.1s-2.1-17-6.3-23.9c-4.2-6.9-9.8-13.1-16.9-18.6-7.1-5.5-15.1-10.4-24.2-14.7s-18.4-8.6-28-12.8c-11-4.8-21.8-9.7-32.4-14.7-10.6-5-20.2-11-28.8-18.1-8.5-7.1-15.5-15.3-20.8-24.7-5.3-9.3-8-20.8-8-34.3s2.8-26,8.5-36.5c5.6-10.5,13.2-19.2,22.7-26.1,9.5-6.9,20.3-12.1,32.4-15.5,12.1-3.4,24.7-5.1,37.9-5.1,20.3,0,39.8,4,58.5,12.1,18.7,8.1,33.8,20.8,45.4,38.2l-29.5,23.2c-8.4-11.6-19.1-21-32.1-28.3s-27.3-10.9-42.8-10.9-33.8,4.3-44.2,12.8c-10.5,8.5-15.7,19.9-15.7,34.1s1.8,14.9,5.6,20.5c3.7,5.6,8.9,10.8,15.5,15.5,6.6,4.7,14.6,9.1,23.9,13.3,9.3,4.2,19.8,8.9,31.4,14,10.9,4.8,21.8,10,32.4,15.5s20.1,11.9,28.5,19.3c8.4,7.4,15.1,16.1,20.3,26.1,5.1,10,7.7,21.9,7.7,35.8s-2.8,30.6-8.5,42.5c-5.6,11.9-13.3,21.8-23,29.5s-20.9,13.4-33.6,16.9c-12.7,3.5-26.3,5.3-40.8,5.3s-21.8-1.2-32.6-3.6c-10.8-2.4-21.1-5.9-30.9-10.4-9.8-4.5-18.8-10.1-27.1-16.7s-15.1-14.1-20.5-22.5l30.4-22.7h0Z"/>
    </g>
    <g>
      <path d="M474.9,0v903.7H0V0h474.9ZM450.1,24.8H24.8v49.6h425.3V24.8ZM450.1,82.7H24.8v46.1h425.3v-46.1ZM450.1,135.9H24.8v46.1h425.3v-46.1ZM133.5,190.2H24.8v44.9h137l-28.4-44.9h0ZM450.1,190.2h-106.9l-30.1,44.9h137v-44.9ZM168.9,243.4H24.8v46.1h173.6l-29.5-46.1h0ZM450.1,243.4h-142.4l-30.1,46.1h172.5v-46.1ZM204.4,296.5H24.8v46.1h209.1l-29.5-46.1h0ZM450.1,296.5h-177.8c-8.3,14-20.4,27.4-28.2,41.5-.8,1.5-2.3,2.6-1.9,4.6h207.9v-46.1h0ZM450.1,400.5H24.8v44.9h425.3v-44.9h0ZM450.1,453.6H24.8v99.2h425.3v-99.2h0ZM450.1,561.1H24.8v152.4h425.3v-152.4ZM450.1,721.8H24.8v157.1h425.3v-157.1Z"/>
      <rect class="st0" x="24.8" y="721.8" width="425.3" height="157.1"/>
      <rect class="st0" x="24.8" y="561.1" width="425.3" height="152.4"/>
      <rect class="st4" x="24.8" y="453.6" width="425.3" height="99.2"/>
      <rect class="st3" x="24.8" y="24.8" width="425.3" height="49.6"/>
      <rect class="st3" x="24.8" y="82.7" width="425.3" height="46.1"/>
      <rect class="st3" x="24.8" y="135.9" width="425.3" height="46.1"/>
      <rect class="st2" x="24.8" y="400.5" width="425.3" height="44.9"/>
      <polygon class="st3" points="204.4 296.5 233.9 342.6 24.8 342.6 24.8 296.5 204.4 296.5"/>
      <path class="st3" d="M450.1,296.5v46.1h-207.9c-.4-2,1.1-3.1,1.9-4.6,7.8-14,20-27.5,28.2-41.5h177.8Z"/>
      <polygon class="st3" points="168.9 243.4 198.5 289.4 24.8 289.4 24.8 243.4 168.9 243.4"/>
      <polygon class="st3" points="450.1 243.4 450.1 289.4 277.6 289.4 307.7 243.4 450.1 243.4"/>
      <polygon class="st3" points="133.5 190.2 161.8 235.1 24.8 235.1 24.8 190.2 133.5 190.2"/>
      <polygon class="st3" points="450.1 190.2 450.1 235.1 313 235.1 343.2 190.2 450.1 190.2"/>
    </g>
  </g>
</svg>