<?xml version="1.0" encoding="UTF-8"?>
<svg id="Layer_2" data-name="Layer 2" xmlns="http://www.w3.org/2000/svg" viewBox="0 0 2293.97 903.69">
  <defs>
    <style>
      .cls-1 {
        fill: #f5cf1a;
      }

      .cls-2 {
        fill: #ee3131;
        stroke: #000;
        stroke-miterlimit: 10;
        stroke-width: 1.18px;
      }

      .cls-3 {
        fill: #3853a3;
      }

      .cls-4 {
        fill: #f47e20;
      }
    </style>
  </defs>
  <g id="Layer_1-2" data-name="Layer 1">
    <g>
      <path d="M600.9,433.04V110.66h38.67v139.68h161.43V110.66h38.18v322.38h-38.18v-148.38h-161.43v148.38h-38.67Z"/>
      <path d="M946.48,433.04v-154.66l-109.71-167.71h43.98l86.03,130.5,90.38-130.5h42.05l-114.06,167.23v155.15h-38.67Z"/>
      <path d="M1096.79,433.04V110.66h83.13c12.57,0,25.62,1.05,39.15,3.14,13.53,2.1,26.1,5.88,37.7,11.36,11.6,5.48,22.23,12.49,31.9,21.02,9.67,8.54,17.96,18.77,24.89,30.69,6.92,11.92,12.4,25.37,16.43,40.36,4.03,14.98,6.04,31.66,6.04,50.02,0,22.56-2.58,42.77-7.73,60.66-5.16,17.88-12.33,33.43-21.51,46.64-9.18,13.22-20.06,24.17-32.62,32.87s-26.1,15.15-40.6,19.33c-7.42,2.26-16.19,3.87-26.34,4.83-10.15.97-19.26,1.45-27.31,1.45h-83.13ZM1135.45,399.69h39.63c7.08,0,15.14-.4,24.17-1.21,9.02-.8,17.23-2.66,24.65-5.56,9.67-4.18,18.77-9.67,27.31-16.43,8.53-6.77,16.11-15.06,22.72-24.89,6.6-9.83,11.76-21.51,15.47-35.04,3.7-13.53,5.56-29.32,5.56-47.37,0-28.03-4.27-50.58-12.81-67.67-8.54-17.08-20.22-30.45-35.04-40.12-9.35-6.12-20.38-10.55-33.11-13.29-12.73-2.73-25.06-4.11-36.97-4.11h-41.57v255.68Z"/>
      <path d="M1354.88,433.04V110.66h103.43c36.08,0,62.67,8.06,79.75,24.17,17.07,16.12,25.62,37.38,25.62,63.8,0,14.18-2.02,26.51-6.04,36.97-4.03,10.47-9.67,19.33-16.92,26.58-7.25,7.25-15.79,13.13-25.62,17.64-9.83,4.52-20.38,7.73-31.66,9.67l87.96,143.55h-43.98l-87-141.13h-46.88v141.13h-38.67ZM1393.55,258.56h62.35c44.78,0,67.18-19.97,67.18-59.93,0-18.37-5.48-32.06-16.43-41.08-10.96-9.02-26.75-13.53-47.37-13.53h-65.73v114.55Z"/>
      <path d="M1540.47,433.04l124.21-322.38h23.68l126.63,322.38h-42.05l-38.18-99.56h-116.96l-36.73,99.56h-40.6ZM1630.37,299.15h91.83l-46.88-123.25-44.95,123.25Z"/>
      <path d="M1837.23,318c0,27.39,7.08,48.74,21.27,64.04,14.17,15.31,33.83,22.96,58.96,22.96s45.27-7.41,59.45-22.23c14.17-14.82,21.27-36.41,21.27-64.77V110.66h38.67v214.6c0,19.02-3.31,35.61-9.91,49.78-6.61,14.18-15.47,26.02-26.58,35.52-11.12,9.51-23.92,16.67-38.42,21.51-14.5,4.83-29.65,7.25-45.43,7.25-16.76,0-32.31-2.42-46.64-7.25-14.34-4.83-26.82-12-37.46-21.51-10.63-9.5-18.93-21.34-24.89-35.52-5.97-14.17-8.94-30.77-8.94-49.78V110.66h38.67v207.35Z"/>
      <path d="M2293.97,374.55c-4.19,7.73-9.35,15.47-15.47,23.2-6.12,7.73-13.38,14.67-21.75,20.78-8.38,6.12-18.05,11.12-29,14.98-10.96,3.87-23.37,5.8-37.22,5.8-19.02,0-36.66-3.14-52.92-9.42-16.27-6.28-30.45-16.11-42.53-29.48-12.08-13.37-21.59-30.52-28.52-51.47-6.93-20.94-10.39-46.23-10.39-75.88s3.7-55.66,11.12-77.09c7.41-21.42,17.16-38.91,29.24-52.44s25.78-23.44,41.08-29.72c15.3-6.28,30.85-9.42,46.64-9.42,24.48,0,46.23,5.97,65.25,17.88,19.01,11.92,33.18,28.03,42.53,48.33l-31.42,18.85c-2.9-5.8-6.69-11.68-11.36-17.64-4.67-5.96-10.15-11.27-16.43-15.95-6.28-4.67-13.22-8.53-20.78-11.6-7.57-3.06-15.71-4.59-24.41-4.59-28.36,0-50.51,11.6-66.46,34.8-15.95,23.2-23.92,56.23-23.92,99.08,0,20.95,2.42,39.56,7.25,55.82,4.83,16.27,11.43,29.97,19.82,41.08,8.38,11.12,18.28,19.5,29.72,25.13,11.43,5.64,23.76,8.46,36.97,8.46,9.34,0,17.64-1.28,24.89-3.87,7.25-2.58,13.85-6.04,19.82-10.39,5.96-4.35,11.28-9.5,15.95-15.47,4.67-5.96,8.94-12.16,12.81-18.61l29.48,18.85Z"/>
      <path d="M606.7,722.51c9.34,13.53,21.58,23.68,36.73,30.45,15.14,6.77,30.61,10.15,46.4,10.15,8.38,0,16.35-1.04,23.92-3.14,7.57-2.09,14.18-5.32,19.82-9.67,5.63-4.35,10.15-10.07,13.53-17.16,3.38-7.08,5.08-15.47,5.08-25.13,0-9.02-2.1-16.99-6.28-23.92-4.19-6.92-9.83-13.12-16.92-18.61-7.09-5.48-15.15-10.39-24.17-14.74-9.02-4.35-18.37-8.62-28.03-12.81-10.96-4.83-21.75-9.74-32.38-14.74-10.63-4.99-20.22-11.03-28.76-18.12-8.54-7.08-15.47-15.3-20.78-24.65-5.32-9.34-7.97-20.78-7.97-34.32s2.82-26.02,8.46-36.49c5.63-10.47,13.21-19.17,22.72-26.1,9.5-6.93,20.3-12.08,32.38-15.47,12.08-3.38,24.73-5.08,37.94-5.08,20.3,0,39.79,4.03,58.48,12.08,18.68,8.06,33.83,20.78,45.43,38.18l-29.48,23.2c-8.38-11.6-19.09-21.02-32.14-28.27s-27.31-10.87-42.77-10.87c-19.02,0-33.76,4.27-44.22,12.81-10.47,8.54-15.71,19.9-15.71,34.07,0,8.06,1.85,14.91,5.56,20.54,3.7,5.64,8.86,10.8,15.47,15.47,6.6,4.67,14.58,9.11,23.92,13.29,9.34,4.19,19.82,8.87,31.42,14.02,10.95,4.83,21.75,9.99,32.38,15.47,10.63,5.48,20.13,11.92,28.52,19.33,8.38,7.42,15.14,16.12,20.3,26.1,5.15,9.99,7.73,21.92,7.73,35.77,0,16.43-2.82,30.62-8.46,42.53-5.64,11.92-13.29,21.75-22.96,29.48-9.67,7.73-20.87,13.37-33.59,16.92-12.73,3.54-26.34,5.32-40.84,5.32-10.96,0-21.83-1.21-32.62-3.62-10.8-2.42-21.11-5.88-30.93-10.39-9.83-4.51-18.85-10.07-27.07-16.67-8.22-6.6-15.07-14.09-20.54-22.47l30.45-22.72Z"/>
      <path d="M879.29,791.63v-154.66l-109.71-167.71h43.98l86.03,130.5,90.38-130.5h42.05l-114.06,167.23v155.15h-38.67Z"/>
      <path d="M1028.15,722.51c9.34,13.53,21.58,23.68,36.73,30.45,15.14,6.77,30.61,10.15,46.4,10.15,8.38,0,16.35-1.04,23.92-3.14,7.57-2.09,14.18-5.32,19.82-9.67,5.63-4.35,10.15-10.07,13.53-17.16,3.38-7.08,5.08-15.47,5.08-25.13,0-9.02-2.1-16.99-6.28-23.92-4.19-6.92-9.83-13.12-16.92-18.61-7.09-5.48-15.15-10.39-24.17-14.74-9.02-4.35-18.37-8.62-28.03-12.81-10.96-4.83-21.75-9.74-32.38-14.74-10.63-4.99-20.22-11.03-28.76-18.12-8.54-7.08-15.47-15.3-20.78-24.65-5.32-9.34-7.97-20.78-7.97-34.32s2.82-26.02,8.46-36.49c5.63-10.47,13.21-19.17,22.72-26.1,9.5-6.93,20.3-12.08,32.38-15.47,12.08-3.38,24.73-5.08,37.94-5.08,20.3,0,39.79,4.03,58.48,12.08,18.68,8.06,33.83,20.78,45.43,38.18l-29.48,23.2c-8.38-11.6-19.09-21.02-32.14-28.27s-27.31-10.87-42.77-10.87c-19.02,0-33.76,4.27-44.22,12.81-10.47,8.54-15.71,19.9-15.71,34.07,0,8.06,1.85,14.91,5.56,20.54,3.7,5.64,8.86,10.8,15.47,15.47,6.6,4.67,14.58,9.11,23.92,13.29,9.34,4.19,19.82,8.87,31.42,14.02,10.95,4.83,21.75,9.99,32.38,15.47,10.63,5.48,20.13,11.92,28.52,19.33,8.38,7.42,15.14,16.12,20.3,26.1,5.15,9.99,7.73,21.92,7.73,35.77,0,16.43-2.82,30.62-8.46,42.53-5.64,11.92-13.29,21.75-22.96,29.48-9.67,7.73-20.87,13.37-33.59,16.92-12.73,3.54-26.34,5.32-40.84,5.32-10.96,0-21.83-1.21-32.62-3.62-10.8-2.42-21.11-5.88-30.93-10.39-9.83-4.51-18.85-10.07-27.07-16.67-8.22-6.6-15.07-14.09-20.54-22.47l30.45-22.72Z"/>
      <path d="M1295.43,791.63v-289.03h-100.05v-33.35h238.28v33.35h-100.05v289.03h-38.18Z"/>
      <path d="M1435.58,791.63v-322.38h188.01v33.35h-149.35v103.43h106.81v33.35h-107.3v118.9h161.43v33.35h-199.61Z"/>
      <path d="M1642.44,791.63v-322.38h45.43l93.76,248.91,96.66-248.91h44.95v322.38h-37.22v-246.01l-100.05,251.33h-7.73l-98.11-250.84v245.53h-37.7Z"/>
      <path d="M1965.78,722.51c9.34,13.53,21.58,23.68,36.73,30.45,15.14,6.77,30.61,10.15,46.4,10.15,8.38,0,16.35-1.04,23.92-3.14,7.57-2.09,14.18-5.32,19.82-9.67,5.63-4.35,10.15-10.07,13.53-17.16,3.38-7.08,5.08-15.47,5.08-25.13,0-9.02-2.1-16.99-6.28-23.92-4.19-6.92-9.83-13.12-16.92-18.61-7.09-5.48-15.15-10.39-24.17-14.74-9.02-4.35-18.37-8.62-28.03-12.81-10.96-4.83-21.75-9.74-32.38-14.74-10.63-4.99-20.22-11.03-28.76-18.12-8.54-7.08-15.47-15.3-20.78-24.65-5.32-9.34-7.97-20.78-7.97-34.32s2.82-26.02,8.46-36.49c5.63-10.47,13.21-19.17,22.72-26.1,9.5-6.93,20.3-12.08,32.38-15.47,12.08-3.38,24.73-5.08,37.94-5.08,20.3,0,39.79,4.03,58.48,12.08,18.68,8.06,33.83,20.78,45.43,38.18l-29.48,23.2c-8.38-11.6-19.09-21.02-32.14-28.27s-27.31-10.87-42.77-10.87c-19.02,0-33.76,4.27-44.22,12.81-10.47,8.54-15.71,19.9-15.71,34.07,0,8.06,1.85,14.91,5.56,20.54,3.7,5.64,8.86,10.8,15.47,15.47,6.6,4.67,14.58,9.11,23.92,13.29,9.34,4.19,19.82,8.87,31.42,14.02,10.95,4.83,21.75,9.99,32.38,15.47,10.63,5.48,20.13,11.92,28.52,19.33,8.38,7.42,15.14,16.12,20.3,26.1,5.15,9.99,7.73,21.92,7.73,35.77,0,16.43-2.82,30.62-8.46,42.53-5.64,11.92-13.29,21.75-22.96,29.48-9.67,7.73-20.87,13.37-33.59,16.92-12.73,3.54-26.34,5.32-40.84,5.32-10.96,0-21.83-1.21-32.62-3.62-10.8-2.42-21.11-5.88-30.93-10.39-9.83-4.51-18.85-10.07-27.07-16.67-8.22-6.6-15.07-14.09-20.54-22.47l30.45-22.72Z"/>
    </g>
    <g>
      <path d="M474.88,0v903.69H0V0h474.88ZM450.07,24.81H24.81v49.61h425.26V24.81ZM450.07,82.69H24.81v46.07h425.26v-46.07ZM450.07,135.85H24.81v46.07h425.26v-46.07ZM133.49,190.19H24.81v44.89h137.03l-28.35-44.89ZM450.07,190.19h-106.91l-30.12,44.89h137.03v-44.89ZM168.92,243.35H24.81v46.07h173.65l-29.53-46.07ZM450.07,243.35h-142.35l-30.12,46.07h172.47v-46.07ZM204.36,296.5H24.81v46.07h209.09l-29.53-46.07ZM450.07,296.5h-177.78c-8.28,14.01-20.44,27.42-28.23,41.46-.84,1.52-2.28,2.6-1.89,4.61h207.91v-46.07ZM450.07,400.46H24.81v44.89h425.26v-44.89ZM450.07,453.62H24.81v99.23h425.26v-99.23ZM450.07,561.11H24.81v152.39h425.26v-152.39ZM450.07,721.77H24.81v157.11h425.26v-157.11Z"/>
      <rect class="cls-1" x="24.81" y="721.77" width="425.26" height="157.11"/>
      <rect class="cls-1" x="24.81" y="561.11" width="425.26" height="152.39"/>
      <rect class="cls-4" x="24.81" y="453.62" width="425.26" height="99.23"/>
      <rect class="cls-3" x="24.81" y="24.81" width="425.26" height="49.61"/>
      <rect class="cls-3" x="24.81" y="82.69" width="425.26" height="46.07"/>
      <rect class="cls-3" x="24.81" y="135.85" width="425.26" height="46.07"/>
      <rect class="cls-2" x="24.81" y="400.46" width="425.26" height="44.89"/>
      <polygon class="cls-3" points="204.36 296.5 233.9 342.57 24.81 342.57 24.81 296.5 204.36 296.5"/>
      <path class="cls-3" d="M450.07,296.5v46.07h-207.91c-.39-2.01,1.05-3.09,1.89-4.61,7.79-14.05,19.96-27.46,28.23-41.46h177.78Z"/>
      <polygon class="cls-3" points="168.92 243.35 198.46 289.42 24.81 289.42 24.81 243.35 168.92 243.35"/>
      <polygon class="cls-3" points="450.07 243.35 450.07 289.42 277.6 289.42 307.73 243.35 450.07 243.35"/>
      <polygon class="cls-3" points="133.49 190.19 161.84 235.08 24.81 235.08 24.81 190.19 133.49 190.19"/>
      <polygon class="cls-3" points="450.07 190.19 450.07 235.08 313.04 235.08 343.17 190.19 450.07 190.19"/>
    </g>
  </g>
</svg>