<?xml version="1.0" encoding="UTF-8"?>
<svg id="Layer_2" data-name="Layer 2" xmlns="http://www.w3.org/2000/svg" viewBox="0 0 173.68 33.17">
  <defs>
    <style>
      .cls-1 {
        fill: #fff;
      }
    </style>
  </defs>
  <g id="Layer_1-2" data-name="Layer 1">
    <g>
      <g>
        <path class="cls-1" d="M8.58,32.51c-.47,0-.93-.08-1.38-.16-.44-.08-.89-.16-1.34-.16-.4,0-.77-.13-1.13-.26-.28-.1-.54-.19-.8-.22-.65.32-1.22.49-1.68.49-.83,0-1.14-.54-1.41-1.03-.17-.3-.33-.58-.59-.72-.26-.46.1-.99.33-1.35l.1-.15c-.13-.61.58-.87,1.2-1.1.4-.15.81-.3,1-.55.4-.13.75-.17,1.19-.17.22,0,.44,0,.66.02.22,0,.43.02.65.02.07-.05.21-.08.37-.08.27,0,.57.1.93.3.29-.07.61-.31.91-.55.09-.07.19-.14.28-.21.13-.75.29-.86.89-1.18l.28-.15c.22-.44.03-1.05-.21-1.42l-.03-.05.02-.06c.04-.12.12-.41.21-.75.35-1.27.46-1.62.54-1.7l.02-.02.09-.05c.11-.05.17-.08.2-.14l-.28-.35c-.05-.53-.08-.98-.11-1.43-.03-.45-.06-.9-.08-1.36-.47-1.08-.23-3.1.02-5.23.29-2.52.59-5.12-.12-6.76-.11-.24-.41-.63-.65-.83-.23-.18-.72-.2-1.07-.2-.3,0-.64.02-1,.04-.4.02-.82.04-1.24.04-1.47,0-3.18-.26-3.29-2.25-.02-.47.16-.91.52-1.28.43-.45,1.08-.73,1.69-.73h.2c.87,0,1.72.25,2.54.51.71.22,1.44.44,2.18.49.22.02.43.03.64.03.85,0,1.71-.14,2.54-.27.84-.13,1.71-.27,2.58-.27.35,0,.68.02,1.01.07.53.06,1.07.16,1.59.25.82.15,1.6.28,2.39.31h.06s.04.05.04.05c.52.64.69,1.42.42,1.99-.22.48-.71.74-1.37.74-.06,0-.12,0-.19,0l-.46-.36s-.03.03-.04.05c-.17.19-.38.43-.69.43-.23.2-.5.3-.76.3-.32,0-.6-.15-.97-.33l-.13-.06c-.2.01-.35.12-.53.25-.24.18-.53.39-1.17.39-.09,0-.19,0-.3-.01l.04.2c.07.37.08.46-.17.56-.06.02-.14.06-.25.12-.02.51.05,1.01.11,1.5l.05.38c.04.42-.11,3.24-.3,3.52-.04.05-.08.1-.13.15-.1.11-.21.22-.21.34,0,3.13.16,5.87.48,8.38.08.88.12,1.47-.04,2.36-.08.64.06,1.31.19,1.95.06.32.13.64.17.95.63.43,2.69,1.68,3.15,1.79.14.04.3.05.48.05.26,0,.53-.04.8-.07.27-.03.53-.07.77-.07.81,0,1.24.4,1.39,1.28.19.09.73.37.73.69v.27c.02.77.04,1.94-1.08,2.02-.34.36-.74.55-1.15.55-.26,0-.49-.07-.74-.14-.25-.07-.52-.15-.82-.15-.15,0-.29.02-.43.05-.11.03-.22.08-.34.13-.25.1-.5.2-.79.2h-.11c-.22-.03-.42-.11-.6-.2-.18-.08-.34-.15-.52-.17-.37.26-.74.46-1.16.46-.25,0-.51-.08-.79-.25-.26.13-.48.19-.7.19-.24,0-.43-.07-.63-.15-.22-.09-.45-.17-.78-.17-.3,0-.59.1-.9.21-.32.11-.64.23-.98.23Z"/>
        <path class="cls-1" d="M4.46.91c1.6,0,3.11.89,4.72,1,.22.02.44.03.65.03,1.72,0,3.4-.53,5.12-.53.33,0,.66.02.99.07,1.36.16,2.68.52,4,.56.88,1.08.66,2.53-.86,2.53-.06,0-.12,0-.18,0l-.48-.4c-.2.2-.4.52-.72.52-.3.22-.53.3-.76.3-.32,0-.62-.17-1.04-.38-.68,0-.69.63-1.75.63-.13,0-.28,0-.45-.03.16,1,.2.6-.36.96-.04.68.08,1.32.16,1.96.04.44-.12,3.2-.28,3.44-.12.16-.36.32-.36.56,0,2.8.12,5.6.48,8.4.08.88.12,1.44-.04,2.32-.12,1,.24,2,.36,3,.52.36,2.72,1.72,3.24,1.84.16.04.34.06.51.06.52,0,1.08-.14,1.57-.14.62,0,1.12.22,1.28,1.24.2.08.72.36.72.6,0,.8.16,2.08-.96,2.16-.45.42-.81.55-1.14.55-.5,0-.95-.28-1.55-.28-.14,0-.3.02-.46.06-.37.11-.71.32-1.1.32-.03,0-.06,0-.1,0-.4-.04-.72-.32-1.12-.36-.44.27-.79.46-1.17.46-.24,0-.49-.08-.79-.26-.29.15-.51.2-.7.2-.47,0-.76-.32-1.42-.32s-1.24.44-1.88.44c-.92,0-1.8-.32-2.72-.32-.68,0-1.28-.4-1.92-.48-.75.35-1.29.49-1.69.49-1.26,0-1.19-1.33-1.95-1.73-.2-.4.28-1,.48-1.32-.16-1,1.68-.96,2.2-1.64.36-.09.73-.12,1.09-.12.44,0,.87.04,1.31.04.12-.06.24-.08.37-.08.3,0,.62.14.87.28.52-.08.92-.48,1.32-.76.2-.92.36-.88,1.16-1.32.28-.52.12-1.16-.16-1.6.12-.36.6-2.28.72-2.4.16-.08.32-.12.36-.32l-.32-.4c-.04-.92-.12-1.8-.16-2.72-1-2.36,1.24-8.92-.12-12.04-.12-.28-.44-.68-.68-.88-.23-.18-.64-.23-1.15-.23-.65,0-1.45.08-2.24.08-1.56,0-3.06-.31-3.17-2.13-.04-1.08,1.08-1.88,2.08-1.88.07,0,.13,0,.2,0M4.46.66c-.07,0-.14,0-.21,0h0c-.63,0-1.31.29-1.76.76-.38.39-.57.88-.55,1.37.12,2.13,2.01,2.37,3.42,2.37.42,0,.84-.02,1.24-.04.35-.02.69-.04,1-.04.19,0,.78,0,1,.17.22.18.51.55.6.78.7,1.62.39,4.32.12,6.7-.25,2.13-.48,4.14-.01,5.3.02.45.05.88.08,1.32.03.45.06.9.08,1.35v.08s.05.06.05.06l.21.26s-.05.02-.08.04l-.08.04-.04.02-.03.03c-.1.1-.18.33-.57,1.75-.09.34-.17.63-.21.74l-.04.11.06.1c.21.33.37.85.18,1.28-.08.04-.15.08-.21.11-.6.32-.8.45-.98,1.24-.07.05-.13.1-.2.15-.27.21-.55.42-.86.49-.35-.18-.64-.27-.91-.27-.15,0-.29.03-.42.08-.2,0-.39,0-.59-.02-.22,0-.44-.02-.66-.02-.45,0-.82.04-1.15.12l-.08.02-.05.07c-.17.22-.56.36-.95.51-.61.22-1.36.5-1.31,1.23-.02.02-.03.05-.05.08-.25.38-.63.94-.39,1.42l.04.07.07.04c.23.12.38.39.54.67.27.49.61,1.09,1.52,1.09.46,0,1.03-.16,1.73-.48.23.04.46.12.71.21.37.13.75.27,1.17.27s.86.08,1.32.16c.45.08.92.16,1.4.16.36,0,.7-.12,1.02-.23.3-.11.58-.21.86-.21.31,0,.52.08.74.17.2.08.41.16.68.16.22,0,.44-.05.69-.17.28.15.54.23.8.23.42,0,.79-.19,1.22-.45.13.03.27.09.41.15.2.09.4.18.64.2.04,0,.08,0,.12,0,.32,0,.58-.11.84-.21.11-.04.22-.09.33-.12.12-.03.26-.05.39-.05.28,0,.54.07.78.14.24.07.5.14.77.14.43,0,.83-.18,1.25-.56,1.15-.14,1.12-1.38,1.11-2.13,0-.09,0-.18,0-.27,0-.37-.5-.65-.75-.77-.17-.9-.65-1.32-1.5-1.32-.25,0-.52.03-.79.07-.26.03-.53.07-.78.07-.17,0-.32-.02-.45-.05-.44-.1-2.39-1.29-3.07-1.74-.04-.31-.1-.61-.16-.91-.13-.66-.26-1.29-.18-1.92.16-.89.12-1.48.04-2.37-.32-2.51-.48-5.25-.48-8.38,0-.07.09-.16.17-.25.05-.05.1-.11.14-.16.24-.36.36-3.29.33-3.61l-.05-.38c-.06-.46-.13-.93-.11-1.41.07-.04.13-.06.18-.08.35-.14.31-.34.25-.7,0-.01,0-.03,0-.04.05,0,.1,0,.15,0,.67,0,.99-.23,1.24-.42.16-.12.27-.2.45-.21l.07.04c.38.19.68.34,1.02.34.27,0,.54-.1.85-.31.29-.04.5-.25.66-.42l.3.25.06.05h.08c.07.01.14.01.2.01.71,0,1.24-.29,1.48-.81.29-.61.12-1.45-.43-2.12l-.07-.09h-.11c-.78-.03-1.56-.16-2.38-.31-.52-.09-1.06-.19-1.6-.25-.32-.05-.66-.07-1.02-.07-.88,0-1.75.14-2.59.27-.83.13-1.68.26-2.52.26-.21,0-.42,0-.63-.03-.73-.05-1.46-.27-2.16-.49-.83-.25-1.69-.52-2.58-.52h0Z"/>
      </g>
      <g>
        <path class="cls-1" d="M37.39,32.34c-.17,0-.3-.03-.4-.09-.37-.04-.77-.2-1.16-.37-.23-.09-.46-.19-.69-.26-.43.19-.73.27-.97.27-.29,0-.51-.11-.83-.28-.14-.08-.32-.17-.53-.27-.3.01-1.01.08-1.76.15-.89.08-1.9.18-2.5.18-.22,0-.38-.01-.48-.04-.34-.12-.64-.32-.93-.52-.21-.14-.42-.29-.66-.41l-.05-.03v-.06c-.07-.3-.02-.84.04-1.46.09-.92.21-2.18-.15-2.37-.36-.49-.19-.93-.06-1.28.15-.39.22-.62-.05-.86l-.07-.06.04-.08c.12-.28.28-.65.26-.72-.21-.14-.46-.3-.7-.95-.77-1.98,1.54-3.24,2.78-3.91l.07-.04.06.04c.33.23.51.59.68.94.04.08.08.17.13.25l.69.16.02.07c.08.25.33.59.59.95.56.78,1.27,1.74.65,2.38.31.64.71,1.34,1.33,1.84.1-.04.24-.06.41-.06.74,0,1.97.38,2.38.85.05.06.09.12.12.19.7-.43,1.51-.49,2.15-.49.27,0,.54.01.79.02.22.01.43.02.62.02.33,0,.55-.03.71-.1,1.83-.88,3.72-3.09,3.72-5.28s-3.57-3.03-5.11-3.27c-.22.08-.44.14-.66.14-.32,0-.59-.12-.91-.41-.21,0-.53-.02-.86-.03-1.14-.04-2.44-.08-2.96-1.13-.31-.08-.48-.08-.64-.09-.28-.01-.48-.04-1.12-.46-1.58-1.03-2.8-2.46-3.84-4.49.02-1.05-.2-2.05-.4-3.01-.06-.27-.12-.55-.17-.82v-.06s.03-.05.03-.05c.38-.43.71-1.21,1-1.9.16-.38.31-.75.47-1.04.39-.74,5.5-3.52,6.32-3.74.42-.12,1.11-.19,1.94-.19,1.37,0,3.22.19,4.07.59.25.13.46.3.66.46.13.11.25.21.39.3l1.28-.1c.65-.35,1.18-.6,1.71-.6s1.03.26,1.67.88c.05.26.18.48.3.69.23.39.52.88.03,1.25.2.79.33.86.5.94.12.06.28.14.46.42.35.54.24.89.12,1.24-.07.21-.13.4-.1.66.03.35.17.65.31.94l.11.25-.04.06c-.19.25-.39,1.57-.46,2.22v.06s-.34.23-.34.23c-.35.25-.5.35-.71.35-.12,0-.25-.04-.46-.11-.13-.04-.29-.09-.5-.15-.4-.1-.66-.14-.85-.18-.52-.09-.6-.12-1.52-.8-.22-.36-.38-.71-.54-1.05-.29-.63-.59-1.27-1.04-1.81-.69-.81-1.68-1.22-2.92-1.22-1.31,0-2.67.44-3.58.77-.08.07-.19.17-.31.27-.33.29-.68.59-1.08.8-.07,0-.2,0-.22,0-.56,0-.94.39-1.13.78l.39.46c.11,1.6,1.11,3.25,2.63,3.36.1,0,.2,0,.29,0,.54,0,.88-.1,1.18-.18.22-.06.42-.12.65-.12.45,0,.96.23,1.75.8.07-.04.23-.09.39-.15.19-.06.38-.13.6-.15h.07s.35.5.35.5c.21-.06.45-.11.69-.11.06,0,.13,0,.19.01,2.62.04,6.01,4.14,6.9,6.27,1,2.41.35,4.21-.6,6.3-.12.25-.2.51-.29.76-.18.54-.37,1.09-.82,1.52-.08.09-.32.29-.61.51-.31.25-.83.66-.88.77.01.04.04.06.08.08l.05.03.06.09c.02.08-.03.15-.05.18-.19.32-.84.66-1.36.94-.16.08-.29.15-.39.21-1.07.67-2.08.89-3.15,1.12-.36.08-.73.16-1.12.26-.09.03-.23.08-.39.13-.54.19-1.28.46-1.79.46Z"/>
        <path class="cls-1" d="M36.72.25c1.48,0,3.25.21,4.01.58.4.2.68.52,1.04.76l1.36-.08c.7-.36,1.21-.6,1.7-.6s.96.24,1.58.84c.04.6,1.04,1.32.28,1.8.36,1.48.56.8,1,1.48.52.8-.08,1.12,0,1.84.04.44.24.8.4,1.16-.24.32-.44,1.88-.48,2.28-.56.39-.71.53-.92.53-.17,0-.39-.1-.92-.25-1.44-.36-1.04,0-2.32-.96-.52-.92-.84-2-1.56-2.84-.8-.94-1.88-1.26-3.02-1.26-1.24,0-2.54.39-3.62.78-.44.36-.88.8-1.4,1.08-.05,0-.11,0-.16,0-.6,0-1.06.41-1.28.93l.44.52c.08,1.48,1.04,3.28,2.72,3.4.11,0,.2,0,.3,0,.96,0,1.32-.3,1.82-.3.38,0,.83.17,1.68.77.36-.04.68-.24,1.08-.28l.36.52c.23-.07.48-.13.74-.13.06,0,.12,0,.18.01,2.52.04,5.88,4,6.8,6.2.96,2.32.4,4-.6,6.2-.36.76-.44,1.64-1.08,2.24-.2.24-1.52,1.16-1.52,1.36.04.28.28.16.16.32-.24.4-1.32.88-1.72,1.12-1.4.88-2.68.96-4.24,1.36-.43.13-1.51.59-2.14.59-.14,0-.25-.02-.33-.07-.64-.08-1.24-.44-1.88-.64-.48.18-.77.26-1,.26-.39,0-.62-.22-1.32-.54-.78,0-3.22.31-4.31.31-.2,0-.35-.01-.45-.04-.56-.2-1-.64-1.56-.92-.16-.76.52-3.56-.16-3.92-.56-.8.6-1.52-.08-2.12.6-1.4.08-.36-.44-1.76-.72-1.84,1.4-3.04,2.72-3.76.4.28.56.76.8,1.2l.68.16c.28.84,2.12,2.4,1.24,3.24h-.04c.36.76.8,1.52,1.48,2.04.09-.06.24-.08.42-.08.86,0,2.48.56,2.42,1.12.67-.48,1.48-.58,2.24-.58.51,0,1,.04,1.41.04.3,0,.56-.02.76-.11,1.92-.92,3.8-3.2,3.8-5.4s-3.41-3.11-5.21-3.4c0,0,0,0,.01,0h-.04s.02,0,.03,0c-.26.08-.48.14-.68.14-.28,0-.52-.1-.82-.38-1.2-.16-3.16.16-3.8-1.12-.96-.36-.72.12-1.8-.6-1.72-1.12-2.88-2.64-3.8-4.44.04-1.28-.32-2.56-.56-3.8.6-.68,1.04-2.12,1.48-2.96.36-.68,5.36-3.44,6.24-3.68.44-.12,1.13-.18,1.91-.18M36.72,0c-.59,0-1.42.03-1.97.19-.84.23-5.98,3.02-6.39,3.8-.16.3-.31.66-.47,1.05-.29.68-.61,1.45-.98,1.86l-.08.09.02.12c.05.27.11.54.17.82.2.96.42,1.95.39,2.93v.06s.03.06.03.06c1.05,2.05,2.28,3.49,3.89,4.53.66.44.88.47,1.18.48.14,0,.29.01.58.11.58,1.02,1.93,1.07,3.02,1.11.3.01.59.02.85.05.31.27.6.39.93.39.22,0,.44-.05.7-.13,1.53.25,4.94,1.03,4.94,3.14s-1.86,4.31-3.66,5.17c-.17.07-.45.08-.65.08s-.4,0-.61-.02c-.25-.01-.52-.02-.79-.02-.62,0-1.4.05-2.1.44-.02-.03-.05-.06-.07-.1-.44-.49-1.72-.89-2.48-.89-.15,0-.28.01-.38.04-.55-.46-.92-1.09-1.21-1.68.58-.71-.13-1.69-.7-2.48-.26-.35-.5-.68-.57-.91l-.04-.13-.14-.03-.57-.13c-.03-.07-.07-.13-.1-.2-.18-.36-.36-.74-.72-.99l-.13-.09-.14.07c-1.27.7-3.65,1.99-2.83,4.07.25.68.53.86.68.96,0,0,0,0,0,0-.03.13-.16.42-.24.61l-.07.17.14.12c.2.17.16.33.01.72-.14.36-.32.85.03,1.35l.03.05.05.03c.28.15.15,1.52.08,2.25-.06.64-.11,1.19-.05,1.5l.02.12.11.05c.22.11.44.26.64.4.29.2.59.41.94.53.13.04.29.05.53.05.61,0,1.62-.09,2.51-.18.71-.07,1.38-.13,1.74-.14.19.09.35.17.48.24.33.17.57.3.89.3.25,0,.53-.07,1.01-.24.2.07.4.15.6.23.38.16.78.32,1.2.38.11.05.25.08.41.08.53,0,1.28-.27,1.83-.47.15-.06.29-.1.39-.13.38-.1.75-.18,1.11-.25,1.08-.23,2.11-.45,3.19-1.13.09-.05.23-.13.38-.21.66-.35,1.22-.66,1.42-1,.01-.01.09-.12.06-.26-.02-.1-.09-.16-.14-.18.15-.16.54-.47.78-.66.33-.27.54-.43.63-.54.45-.42.65-.99.83-1.55.09-.26.17-.51.28-.75.97-2.12,1.62-3.94.61-6.4-.9-2.16-4.34-6.31-7.03-6.35-.04,0-.11-.01-.18-.01-.23,0-.44.04-.64.09l-.26-.37-.08-.12h-.15c-.24.04-.45.11-.63.17-.13.04-.25.08-.36.11-.77-.54-1.28-.76-1.74-.76-.25,0-.46.06-.68.12-.29.08-.62.18-1.14.18-.09,0-.18,0-.28,0-1.6-.11-2.42-1.92-2.48-3.16v-.08s-.06-.06-.06-.06l-.34-.4c.22-.4.58-.64.98-.64.04,0,.09,0,.13,0h.08s.07-.03.07-.03c.41-.22.76-.53,1.1-.82.1-.09.2-.18.31-.26.9-.33,2.23-.75,3.5-.75,1.22,0,2.15.38,2.83,1.17.45.52.74,1.16,1.02,1.78.16.34.32.69.51,1.02l.03.05.04.03c.94.7,1.03.74,1.57.83.19.03.44.08.84.17.2.06.36.11.49.15.21.07.35.11.5.11.24,0,.41-.12.78-.38l.28-.2.09-.07v-.11c.09-.74.29-1.95.44-2.15l.09-.12-.06-.13-.08-.18c-.14-.29-.27-.57-.29-.9-.03-.23.03-.41.1-.61.12-.35.25-.75-.14-1.34-.2-.31-.38-.4-.51-.46-.13-.06-.24-.12-.41-.78.49-.43.16-.98-.06-1.36-.12-.2-.24-.4-.25-.56v-.1s-.08-.07-.08-.07c-.66-.64-1.18-.91-1.75-.91-.54,0-1.08.25-1.77.6l-1.22.07c-.11-.08-.21-.17-.32-.25-.2-.17-.42-.34-.68-.48-.86-.42-2.74-.61-4.12-.61h0Z"/>
      </g>
      <g>
        <path class="cls-1" d="M58.98,33.05c-2.86,0-6.47-.36-7.41-2.08-.42-.77-.27-1.73.46-2.85l.03-.05s.41-.06.58-.09c.54-.08,1.06-.15,1.53-.35.4-.18.48-.3.54-.4.14-.21.25-.31,1.25-.4-.03-.26.01-.46.11-.63-.03-.31.21-.54.45-.77.45-.44.96-.93.15-2.63-.01-.8.16-1.53.32-2.25.1-.46.21-.92.27-1.38.2-1.31.12-2.64.04-3.94-.05-.69.03-.88.15-1.16.06-.15.14-.33.21-.64.04-.14.06-.28.08-.41.02-.14.04-.29.08-.43,0-.24,0-.57,0-.92.03-1.43.06-3.39-.29-4.4-.15-.43-.31-.58-.54-.79-.12-.11-.25-.23-.4-.41-.1-.12-.18-.26-.25-.39-.1-.19-.2-.36-.36-.47,0,.03-.09.04-.18.04-.37,0-.72-.14-.96-.38-.12.02-.24.04-.35.07-.2.04-.41.09-.64.09-.73,0-1.27-.76-1.43-1.52-.17-.83.1-1.54.7-1.8.58-.23,1.4-.34,2.49-.34.66,0,1.34.04,1.96.07.4.02.79.04,1.12.05.28,0,.57-.03.86-.05.3-.03.6-.05.9-.05.15,0,.3,0,.45.02.36.04.69.17,1.01.3.3.12.58.23.88.26.06,0,.12,0,.19,0,.2,0,.4-.02.6-.04.21-.02.42-.04.63-.04h.07l.04.06c.07.11.16.21.24.31.2.24.4.48.46.82.1.78-.78,1.31-1.63,1.81-.6.36-1.22.73-1.33,1.12-.07.18,0,.66.06,1.04.04.25.07.49.07.64,0,.51-.41,1.47-.71,2.17-.07.17-.13.31-.18.43.02.15.03.35.04.55.02.4.04.79.09,1.18.08.53.29,1.1.51,1.7.42,1.14.85,2.32.44,3.36-.59,1.49-.5,2.39-.06,3.79h.16v.13c-.04.41-.15.8-.25,1.17l-.09.33c.08.54.11,1.14.14,1.72.03.58.06,1.17.14,1.75.19.23.47.44.75.64.28.2.58.41.79.71.13.17.13.29.14.38,0,.04.02.06.12.1h.01c.26,0,.81-.09,1.33-.19.54-.09,1.05-.18,1.25-.18l.43.35c.1-.03.19-.07.28-.11.19-.08.39-.16.61-.16h0c.29,0,.61.18.98.39.43.24.92.52,1.31.52.22,0,.39-.08.52-.25.09-.11.08-.25.07-.41,0-.13-.01-.26.02-.39.08-.21.26-.37.42-.52.19-.17.37-.33.37-.53,0-.23,0-.46-.02-.7-.03-.94-.07-1.9.39-2.76.02-1.2.29-2.87,2.2-2.87h.06l.11.05c.31.39.51.82.7,1.23h.03l.05.11c.04.26.13.54.23.83.23.67.48,1.43.03,2.09-.05.69-.05,1.46-.04,2.21,0,1.24.01,2.52-.34,3.75-.15.13-.24.2-.33.26-.22.16-.45.33-.75.42-1.11.28-1.12.45-1.13.53-.02.26-.15.34-1.34.4l-.14.13c-.45.34-.8.6-1.22.6-.33,0-.67-.16-1.09-.52-.45.07-.98.14-1.52.2-.89.1-1.81.21-2.71.23h0c-.21,0-.43-.03-.65-.05-.21-.02-.43-.05-.63-.05-.1,0-.2,0-.3.02l-.47.34c-.91.13-2.39.24-3.98.24Z"/>
        <path class="cls-1" d="M55.62,1.5c1.09,0,2.23.11,3.08.13.58,0,1.18-.1,1.76-.1.15,0,.29,0,.43.02.68.08,1.24.48,1.88.56.07,0,.14,0,.21,0,.41,0,.82-.09,1.23-.09.24.36.6.64.68,1.08.16,1.24-2.68,1.88-2.96,2.88-.12.32.12,1.32.12,1.72,0,.6-.64,1.96-.88,2.56.04.6.04,1.2.12,1.8.24,1.56,1.56,3.48.96,5-.6,1.52-.52,2.44-.04,3.96h.12c-.04.52-.2,1-.32,1.48.16,1.16.12,2.36.28,3.52.44.6,1.16.84,1.56,1.4.24.32-.04.4.32.52.02,0,.05,0,.08,0,.44,0,2.15-.37,2.55-.37l.4.36c.32-.08.6-.28.92-.28.01,0,.03,0,.04,0,.48,0,1.48.91,2.25.91.24,0,.45-.08.62-.3.2-.24.04-.56.12-.84.16-.4.8-.64.8-1.08,0-1.12-.2-2.36.36-3.4.04-1.42.39-2.8,2.09-2.8.02,0,.05,0,.07,0,.32.4.52.84.72,1.28h.04c.12.88.88,1.96.28,2.84-.2,2,.16,4.04-.4,6-.32.2-.6.48-1,.6-2.4.6-.04.8-2.44.92-.55.41-.92.73-1.35.73-.28,0-.6-.14-1.01-.49-1.44.12-2.88.36-4.32.4-.42,0-.86-.1-1.28-.1-.11,0-.21,0-.32.02l-.52.36c-.75.09-2.24.22-3.91.22-4.15,0-9.39-.77-6.85-4.74.72-.12,1.44-.16,2.08-.44,1.08-.48.04-.64,1.88-.8-.04-.24-.04-.48.08-.68-.04-.96,1.88-.84.6-3.52,0-1.2.44-2.36.6-3.56.2-1.32.12-2.64.04-3.96-.08-1.04.16-.88.36-1.76.08-.28.08-.56.16-.84,0-1.44.16-4.12-.28-5.4-.24-.68-.52-.72-.96-1.24-.24-.28-.32-.68-.64-.88-.08.02-.16.02-.25.02-.34,0-.69-.13-.91-.38-.36.04-.68.16-1.04.16-1.24,0-1.96-2.52-.68-3.08.65-.25,1.53-.33,2.44-.33M55.62,1.25c-1.12,0-1.93.11-2.53.34-.66.29-.97,1.05-.78,1.94.16.78.72,1.62,1.55,1.62.24,0,.46-.05.67-.09.09-.02.19-.04.28-.06.26.23.62.37,1,.37.06,0,.12,0,.18-.01.1.09.17.22.25.37.07.14.15.28.26.41.15.18.29.31.4.42.22.21.37.34.51.74.34.99.3,2.94.28,4.36,0,.34-.01.65-.01.92-.04.14-.06.28-.08.42-.02.13-.04.26-.07.39-.07.31-.14.48-.21.63-.13.31-.21.53-.16,1.22.08,1.29.16,2.61-.04,3.9-.06.46-.17.93-.27,1.38-.16.72-.33,1.46-.33,2.22v.06l.02.05c.77,1.62.32,2.06-.12,2.48-.23.22-.49.47-.5.86-.09.17-.11.36-.1.52-.9.09-1.05.2-1.22.44-.06.09-.13.19-.49.35-.45.2-.96.27-1.49.34-.18.02-.35.05-.53.08l-.11.02-.06.09c-.75,1.17-.9,2.17-.46,2.98.97,1.77,4.62,2.14,7.52,2.14,1.6,0,3.09-.11,3.94-.22h.06s.05-.04.05-.04l.47-.33c.07,0,.15-.01.22-.01.2,0,.4.02.62.05.22.03.44.05.66.05.92-.03,1.84-.13,2.73-.23.5-.06,1.01-.12,1.51-.16.41.33.75.48,1.09.48.46,0,.83-.28,1.29-.63l.14-.11c1.07-.06,1.35-.12,1.38-.51.01-.04.12-.19,1.03-.41.33-.1.58-.28.8-.44.09-.07.18-.13.27-.19l.08-.05.03-.09c.36-1.25.35-2.54.34-3.79,0-.72,0-1.47.06-2.19.44-.7.18-1.47-.05-2.15-.1-.29-.19-.56-.22-.81l-.03-.22h-.1c-.18-.4-.38-.81-.69-1.19l-.07-.09h-.12s-.08,0-.08,0c-2.2,0-2.31,2.18-2.33,2.99-.45.87-.41,1.84-.38,2.77,0,.24.02.47.02.7,0,.14-.16.28-.33.44-.18.16-.36.32-.45.55-.05.18-.04.32-.04.45,0,.16.01.25-.04.32-.12.15-.25.21-.43.21-.37,0-.84-.27-1.25-.5-.39-.22-.72-.41-1-.41h-.08s0,0,0,0c-.21,0-.42.09-.62.17-.07.03-.13.06-.2.08l-.3-.27-.07-.06h-.1c-.22,0-.71.08-1.28.18-.5.09-1.08.19-1.28.19-.02,0-.03,0-.04-.01,0-.11-.03-.25-.16-.42-.22-.31-.52-.52-.81-.73-.27-.19-.52-.37-.71-.62-.07-.55-.1-1.12-.13-1.67-.03-.57-.06-1.16-.14-1.73.02-.1.05-.19.08-.29.1-.38.21-.77.24-1.19l.02-.27h-.21c-.4-1.32-.47-2.2.09-3.62.43-1.08-.01-2.28-.44-3.45-.22-.6-.42-1.16-.5-1.68-.05-.38-.07-.78-.09-1.17,0-.18-.02-.37-.03-.55.04-.11.1-.23.16-.37.3-.71.72-1.69.72-2.23,0-.17-.03-.41-.07-.66-.04-.31-.12-.83-.07-.97.1-.37.7-.72,1.28-1.07.89-.53,1.8-1.07,1.69-1.93-.07-.38-.29-.65-.49-.89-.08-.1-.16-.19-.23-.3l-.07-.11h-.13c-.22,0-.43.02-.64.05-.2.02-.39.04-.59.04-.06,0-.12,0-.18,0-.27-.03-.54-.14-.83-.26-.32-.13-.66-.26-1.04-.3-.15-.02-.31-.02-.46-.02-.31,0-.61.03-.91.05-.3.03-.58.05-.85.05-.33,0-.71-.03-1.11-.05-.61-.03-1.3-.07-1.97-.07h0Z"/>
      </g>
      <g>
        <path class="cls-1" d="M101.11,31.02c-1.5,0-3.09-.18-4.04-.29,0,0-.46-.06-.61-.07-.81-.09-1.72-.19-2.23-.88-.82-1.29-.08-1.99.59-2.6.37-.34.75-.7.87-1.15.04-.15.04-.27.04-.39,0-.24.01-.46.3-.78.64-.68.7-1.25.22-2.04-.47-.05-.98-.07-1.55-.07-.79,0-1.59.04-2.38.09l-.43.02c0,.24-.06.42-.18.54-.18.19-.48.22-.76.23-1.29,2.09-.21,2.96,1.4,4.27l.18.14-.04.5c.18.09.3.19.35.32.04.1.04.22,0,.33v.02s-.08.07-.08.07c-.14.13-.27.26-.27.46v.08l-.08.03c-.94.38-2.92.69-4.4.69-.43,0-.79-.03-1.07-.08-.25-.04-.47-.15-.7-.26-.27-.13-.52-.26-.8-.26-.36,0-.73.09-1.08.18-.35.09-.71.18-1.07.18-.42,0-.79-.12-1.12-.38-.24-.05-.69-.16-.82-.45-.05-.1-.05-.22-.01-.34-.38-.39-.78-.83-.82-1.22-.1-1.34,1.07-1.88,2.2-2.42.73-.34,1.42-.67,1.74-1.18.62-1,1.74-4.03,1.86-5.23.02-.18-.04-.32-.1-.48-.07-.19-.15-.4-.1-.69.08-.48.53-1.24.93-1.91.19-.32.36-.61.48-.85l-.1-.62.04-.04c.84-.96,1.12-2.04,1.29-3.06l.43-.54c0-.22.03-.5.06-.79.06-.66.12-1.35.32-2.01l-.09-.93.04-.04c.78-.81,1.16-1.93,1.52-3.02.13-.39.26-.78.41-1.14.13-.15.23-.23.32-.31.22-.19.39-.33.52-.65.37-.22.69-.29.85-.31l.71-.46c.48.08.98.53,1.38.89.14.12.26.24.37.32.21.46.23.96.24,1.48.01.59.03,1.21.28,1.76l.48.46.04.11c.23.73.47,1.48.95,2.08.07.41.04.78-.06,1.15.32,1.26.73,3.01,1.04,4.83.39.57.91,1.49.77,2.45.41.34.55.66.51,1.14.65.85,1.06,1.69,1.2,2.41.09.52,0,.96-.1,1.39-.08.34-.15.67-.13,1.02,0,.75.67,2.55,1.38,2.72.59.15,1.22.31,1.85.52l.31.54c.34.33.69.62,1,.83l.06.04v.07c0,.44,0,.89-.04,1.29.26.48.04.74-.13.95-.11.14-.2.25-.19.42v.12s-.51.05-.51.05c-.53.46-1.71.71-3.44.71ZM91.59,13.32c.13.87-.08,1.75-.27,2.53-.21.86-.39,1.61-.03,2.06.29.36.92.54,1.95.54.24,0,.51,0,.8-.03-.02-.04.06-.12.15-.21.15-.15.31-.31.38-.48.05-.11.04-.24.03-.39-.01-.16-.02-.34.05-.53.1-.25.26-.4.42-.55.2-.19.39-.37.45-.74.17-.98-.41-3.26-.88-5.09-.19-.73-.35-1.39-.44-1.86-.17-.69-.4-1.14-.95-1.21-.32.93-.48,1.89-.65,2.82-.13.75-.27,1.52-.48,2.28-.13.4-.3.67-.54.86Z"/>
        <path class="cls-1" d="M93.94,1.35c.48.12,1.2.88,1.6,1.2.36.84,0,2.12.48,3.2l.48.48c.24.76.48,1.56,1,2.2.04.36,0,.72-.08,1.04.4,1.64.76,3.24,1.04,4.88.48.72.92,1.6.76,2.48.4.32.56.6.52,1.08.52.72,1.04,1.6,1.2,2.44.16.88-.28,1.56-.24,2.4,0,.76.68,2.64,1.48,2.84.64.16,1.24.32,1.84.52l.24.48c.32.32.68.64,1.04.88,0,.44,0,.88-.04,1.28.4.8-.36.84-.32,1.4l-.4.04c-.66.55-2.01.71-3.43.71-1.59,0-3.28-.21-4.21-.31-.84-.12-2-.12-2.56-.88-1.2-1.88,1.12-2.32,1.48-3.64.12-.48-.08-.68.32-1.12.68-.72.76-1.36.2-2.24-.53-.06-1.07-.08-1.62-.08-.97,0-1.96.07-2.94.12.04.68-.32.76-.88.76-1.44,2.28-.2,3.2,1.52,4.6l-.04.52c.2.08.48.24.36.52-.16.16-.36.32-.36.6-.94.37-2.92.68-4.36.68-.4,0-.76-.02-1.04-.08-.52-.08-.96-.52-1.52-.52-.75,0-1.46.36-2.16.36-.35,0-.7-.09-1.04-.36-.32-.08-1-.24-.76-.72-.28-.28-.8-.8-.84-1.2-.16-2.08,3.08-2.16,3.92-3.52.64-1.04,1.76-4.08,1.88-5.28.04-.44-.28-.68-.2-1.16.12-.68,1.04-2,1.4-2.72l-.08-.64c.8-.92,1.12-1.96,1.32-3.12l.4-.48c.12-.96.12-1.92.4-2.84l-.08-.92c1.08-1.12,1.4-2.8,1.96-4.2.36-.36.64-.48.84-.96.24-.12.52-.2.76-.24l.76-.48M93.25,18.58c.25,0,.51,0,.81-.03.2-.24.52-.48.64-.76.12-.28-.04-.6.08-.92.2-.52.76-.6.88-1.32.24-1.4-1-5.36-1.32-7-.16-.64-.4-1.28-1.16-1.32-.6,1.72-.68,3.48-1.16,5.2-.12.36-.28.64-.56.84.45,2.57-2.3,5.31,1.79,5.31M93.89,1.08l-.09.06-.72.45c-.18.03-.49.11-.78.25l-.08.04-.04.09c-.12.29-.27.41-.49.6-.09.08-.19.17-.3.27l-.04.04-.02.05c-.15.37-.28.77-.41,1.15-.36,1.07-.74,2.18-1.5,2.97l-.08.08v.11s.09.87.09.87c-.19.66-.25,1.33-.31,1.99-.02.26-.05.52-.08.77l-.35.42-.04.05v.07c-.18,1-.46,2.06-1.27,3l-.07.08v.11s.08.56.08.56c-.11.22-.27.49-.44.77-.42.71-.86,1.44-.95,1.95-.05.32.04.56.11.76.06.15.1.27.09.42-.12,1.18-1.23,4.18-1.84,5.17-.3.48-.97.8-1.69,1.13-1.11.52-2.38,1.12-2.27,2.54.04.42.42.86.8,1.25-.03.15,0,.27.04.35.15.33.61.46.9.53.34.25.72.38,1.15.38.37,0,.74-.09,1.1-.18.35-.09.7-.17,1.05-.17.25,0,.49.12.75.24.23.11.47.23.74.27.28.05.64.08,1.08.08,1.5,0,3.49-.31,4.45-.69l.16-.06v-.17c0-.14.09-.23.23-.37l.06-.06.03-.03.02-.04c.06-.14.07-.29,0-.43-.06-.13-.17-.25-.34-.34l.03-.35v-.13s-.09-.08-.09-.08l-.13-.1c-1.61-1.3-2.59-2.1-1.41-4.05.28,0,.58-.05.78-.26.12-.13.19-.29.21-.51l.32-.02c.78-.04,1.59-.09,2.37-.09.54,0,1.03.02,1.47.06.42.71.35,1.21-.23,1.83-.33.36-.33.62-.34.87,0,.12,0,.22-.04.36-.11.41-.46.74-.84,1.08-.66.62-1.49,1.38-.61,2.75.55.74,1.53.85,2.32.94.14.02.28.03.41.05l.19.02c.95.11,2.55.29,4.05.29,1.73,0,2.89-.24,3.53-.72l.33-.03.24-.02-.02-.24c0-.12.05-.2.16-.34.17-.21.42-.52.17-1.09.03-.39.03-.82.03-1.23v-.13l-.11-.07c-.3-.2-.62-.47-.97-.82l-.22-.44-.05-.09-.1-.03c-.64-.21-1.27-.38-1.86-.53-.63-.16-1.29-1.9-1.29-2.6-.02-.35.05-.67.13-1,.1-.44.2-.9.11-1.44-.14-.72-.54-1.55-1.19-2.47.02-.51-.19-.83-.51-1.11.11-.96-.38-1.85-.79-2.47-.31-1.78-.7-3.48-1.02-4.79.08-.36.11-.73.07-1.07v-.07s-.05-.06-.05-.06c-.47-.58-.7-1.32-.93-2.03l-.03-.09-.02-.06-.04-.04-.45-.45c-.22-.52-.23-1.11-.25-1.67-.01-.54-.03-1.05-.21-1.48l-.02-.06-.05-.04c-.1-.08-.23-.19-.36-.32-.43-.39-.92-.83-1.33-.93l-.1-.03h0ZM91.73,13.37c.23-.21.4-.48.53-.87.22-.77.35-1.55.48-2.3.16-.89.32-1.81.61-2.7.41.1.59.49.75,1.1.09.46.25,1.11.44,1.86.44,1.73,1.03,4.09.87,5.04-.06.33-.22.49-.42.67-.16.15-.34.33-.45.6-.08.21-.07.41-.06.58,0,.13.02.24-.02.33-.06.14-.21.29-.36.44-.06.06-.12.12-.17.18-.25.02-.48.02-.69.02-.99,0-1.59-.16-1.85-.49-.32-.4-.15-1.12.06-1.96.19-.77.39-1.64.28-2.51h0Z"/>
      </g>
      <g>
        <path class="cls-1" d="M138,32.59c-.85,0-2.07-.74-2.53-1.1-.73-.52-1.88-2.22-2.05-3.03-.41-.47-.29-1.24.01-1.77-.02-1.04-.36-1.69-.71-2.38-.25-.48-.51-.98-.66-1.64-.05-.19-.08-.38-.1-.59-.04-.31-.09-.63-.21-.91-.09-.23-.25-.44-.42-.67-.3-.39-.6-.79-.55-1.31.06-.52.12-.82.15-1.03q.08-.46-.17-1.61s-.17-.8-.24-1.14c-.27-1.25-.55-2.54-.55-3.85,0-.21.16-.4.27-.53,0-.01.02-.02.03-.03-.05,0-.23.02-.23.02l-.03-.1c-.23-.85-.33-1.21-.02-2.1-.11-.18-.22-.35-.33-.52-.22-.34-.45-.69-.61-1.08-.16-.45-.24-.85-.31-1.19-.17-.88-.28-1.46-1.54-1.98-.2-.09-.4-.16-.61-.24-.34-.12-.7-.25-1.01-.46-.08-.19-.12-.29-.16-.4-.11-.29-.22-.59-.09-.95.06-.18.21-.35.36-.53.15-.17.33-.37.31-.5l-.02-.14h.14c.16,0,.3.05.44.09.05.02.1.03.15.05l.15-.53h.08c.28-.03.55-.09.81-.15.36-.08.74-.16,1.13-.16.2,0,.39.02.57.06.36.07.7.1,1.07.1s.72-.03,1.1-.07c.33-.03.69-.06,1.08-.08h0c.79,0,2.04.65,2.72,1.38.37.4.55.8.53,1.15-.09.8-.56.96-1.01,1.11-.22.07-.44.15-.64.3-.03.03-.09.18-.14.32-.14.37-.33.86-.76,1.02.21,1.73.78,3.39,1.34,5,.48,1.39.98,2.82,1.24,4.29.06.31.04.64.03.95-.02.35-.03.68.05,1,.14.67.64,1.26,1.13,1.83.16.18.31.36.44.53.17-.16.35-.31.53-.46.42-.35.81-.69,1.12-1.07l.12-.68c.23-1.21.46-2.46.86-3.6.17-.45.44-.83.71-1.2.27-.37.52-.71.66-1.12.09-.3.02-.7-.06-1.13-.09-.48-.17-.98-.07-1.46.1-.46.35-.88.59-1.29.43-.73.83-1.43.42-2.27l-1.25-1s-.14,0-.21,0c-.08,0-.16,0-.22.02-.06,0-.11.01-.15.01-.28,0-.42-.22-.61-.72-.12-.05-.61-.38-.61-.85,0-1.23,1.36-1.67,2.63-1.67.28,0,.56.02.79.07.25.04.45.15.65.24.17.08.34.16.51.2.12.01.24.02.35.02.58,0,1.12-.17,1.64-.34.52-.16,1.05-.33,1.61-.33s1.08.17,1.6.51l.07.04-.08.53c.09.07.2.08.32.1.46.06.82.22.79,1.55-.17.21-.31.27-.45.27-.08,0-.14-.02-.19-.03,0,0-.01,0-.02,0-.04,0-.07.06-.11.3l-.05.36-.08.02c-.26.06-.54.1-.81.13-.43.05-.83.1-1.21.27-1.06.47-.92,1.15-.77,1.87.08.41.17.84,0,1.19-.14.25-.31.49-.48.74-.08.12-.17.24-.25.35.07,1.27-.3,1.84-.63,2.33-.21.31-.38.58-.43,1.01-.05.49-.03.9-.01,1.31.04.84.07,1.57-.57,2.58-.03.17-.17.73-.17.73-.08.25-.16.49-.23.72-.11.34-.21.67-.33,1.01,0,.09.08.23.15.38.33.95-.11,1.84-.53,2.7-.18.37-.36.72-.46,1.07-.28.98-.46,2.05-.64,3.08l-.16.91c-.06.32-.12.68-.18,1.06-.3,1.99-.67,4.47-2.99,4.72-.17.24-.43.36-.78.36Z"/>
        <path class="cls-1" d="M128.92.25c.18,0,.36.02.55.06.4.08.76.11,1.1.11.71,0,1.34-.12,2.18-.15.01,0,.03,0,.04,0,.98,0,3.15,1.3,3.08,2.4-.12,1.08-.96.84-1.6,1.32-.2.2-.32,1.2-.96,1.36.36,3.28,2.04,6.2,2.6,9.4.12.64-.08,1.32.08,1.96.2.96,1.12,1.76,1.68,2.52.6-.56,1.28-1.04,1.76-1.64.28-1.44.52-2.96,1-4.32.32-.88,1.08-1.48,1.36-2.32.2-.68-.32-1.72-.12-2.6.28-1.24,1.68-2.24,1-3.64l-1.28-1.04c-.11-.03-.21-.03-.29-.03-.16,0-.27.03-.37.03-.17,0-.28-.1-.5-.64-.24-.16-.6-.44-.6-.8,0-1.18,1.39-1.54,2.51-1.54.29,0,.55.02.77.06.44.08.76.36,1.16.44.13.02.26.02.38.02,1.18,0,2.15-.67,3.25-.67.48,0,.98.13,1.53.49l-.08.52c.4.44,1.16-.32,1.12,1.6-.13.12-.23.15-.32.15-.11,0-.19-.05-.25-.05-.08,0-.14.08-.19.42l-.04.28c-.68.16-1.4.12-2.04.4-1.8.8-.4,2.24-.84,3.12-.2.36-.48.72-.72,1.08.08,2.16-.96,2.24-1.08,3.4-.16,1.54.35,2.38-.57,3.83.01-.05.02-.08.01-.08,0,0-.02.04-.04.13.01-.02.02-.03.03-.05-.05.21-.19.77-.19.77-.2.6-.36,1.16-.56,1.72,0,.16.08.32.16.48.44,1.28-.64,2.52-1,3.68-.36,1.28-.56,2.68-.8,4-.4,2-.4,5.44-3.12,5.68-.15.26-.4.36-.71.36-.84,0-2.04-.75-2.45-1.08-.68-.48-1.84-2.16-2-2.96-.4-.48-.28-1.2,0-1.68,0-1.92-1-2.52-1.36-4.12-.12-.48-.12-1.04-.32-1.52-.24-.64-1.04-1.16-.96-1.92.2-1.76.36-.96-.04-2.8-.32-1.6-.76-3.2-.76-4.84,0-.36.65-.69.22-.69-.05,0-.1,0-.18.01-.24-.88-.32-1.2,0-2.08-.32-.56-.72-1.04-.96-1.64-.56-1.56-.08-2.48-1.92-3.24-.52-.24-1.12-.36-1.6-.68-.12-.44-.36-.76-.2-1.2.12-.36.72-.76.68-1.08.24,0,.44.12.68.16l.16-.56c.66-.06,1.27-.3,1.93-.3M128.92,0c-.4,0-.79.08-1.16.16-.27.06-.53.11-.8.14l-.17.02-.05.16-.09.32s-.02,0-.03-.01c-.14-.04-.29-.1-.47-.1h-.28l.03.28c0,.07-.18.28-.28.4-.16.18-.32.37-.39.57-.15.4-.03.72.09,1.03.04.1.08.2.11.31l.02.09.08.05c.32.22.69.34,1.04.47.2.07.4.14.59.23,1.21.5,1.31,1.02,1.48,1.89.07.35.15.75.31,1.21.17.42.4.77.62,1.11.1.15.2.31.3.47-.3.89-.19,1.29.03,2.12l.06.21h.04c-.08.11-.15.25-.15.41,0,1.32.28,2.62.55,3.88.07.34.15.67.21,1.01l.03.13q.24,1.12.16,1.56c-.04.2-.1.51-.16,1.04-.06.57.28,1.01.57,1.4.17.22.32.43.4.63.11.28.16.59.2.89.03.21.06.41.11.6.15.68.41,1.18.67,1.67.34.66.67,1.29.68,2.32-.3.55-.39,1.31.02,1.85.22.91,1.41,2.57,2.09,3.05.36.29,1.64,1.12,2.6,1.12.44,0,.7-.18.85-.37,2.37-.29,2.76-2.9,3.05-4.82.06-.37.11-.73.17-1.05.06-.31.11-.61.16-.92.18-1.03.36-2.09.63-3.06.1-.33.27-.68.45-1.05.41-.84.88-1.8.54-2.78-.07-.15-.13-.27-.14-.36.11-.32.21-.64.32-.97.07-.23.15-.47.23-.71,0-.02.13-.51.19-.75.64-1.03.61-1.8.57-2.62-.02-.4-.04-.8.01-1.29.04-.4.2-.64.41-.95.32-.48.71-1.07.68-2.4.07-.1.13-.19.2-.29.17-.24.35-.49.49-.74.2-.4.11-.85.02-1.28-.15-.73-.27-1.3.7-1.73.36-.16.76-.2,1.18-.26.27-.03.55-.07.82-.13l.17-.04.02-.17.04-.28c.01-.08.02-.14.03-.18.05.01.1.02.16.02.17,0,.33-.07.49-.21l.08-.07v-.11c.03-1.3-.29-1.59-.89-1.67-.09-.01-.15-.02-.2-.04l.06-.37.02-.16-.13-.09c-.54-.35-1.09-.53-1.67-.53s-1.12.17-1.65.34c-.51.16-1.04.33-1.6.33-.11,0-.23,0-.35-.02-.14-.03-.3-.11-.47-.19-.2-.1-.42-.2-.68-.25-.24-.05-.53-.07-.82-.07-1.33,0-2.76.47-2.76,1.79,0,.48.43.82.65.96.2.49.37.72.7.72.05,0,.11,0,.17-.01.06,0,.12-.02.2-.02.06,0,.12,0,.18.02l1.19.96c.34.76-.02,1.39-.44,2.11-.24.42-.49.85-.6,1.32-.11.5-.02,1.04.06,1.51.07.41.14.8.06,1.08-.13.38-.37.72-.63,1.08-.27.37-.55.76-.72,1.23-.41,1.15-.64,2.4-.87,3.62l-.13.68c-.3.36-.67.67-1.06,1.01-.14.12-.29.25-.43.37-.11-.14-.24-.29-.36-.43-.48-.56-.97-1.14-1.1-1.77-.08-.31-.06-.64-.05-.98.01-.32.03-.65-.03-.98-.26-1.48-.76-2.92-1.25-4.31-.55-1.57-1.12-3.2-1.33-4.88.41-.22.61-.71.74-1.05.04-.11.1-.26.13-.29.15-.11.36-.18.58-.26.47-.16.99-.34,1.09-1.21.03-.4-.16-.83-.56-1.26-.7-.76-2-1.42-2.77-1.42h-.05c-.4.01-.75.05-1.09.08-.37.03-.72.07-1.08.07s-.7-.03-1.05-.1c-.19-.04-.38-.06-.59-.06h0Z"/>
      </g>
      <g>
        <path class="cls-1" d="M161.03,32.51c-.47,0-.93-.08-1.38-.16-.44-.08-.89-.16-1.34-.16-.4,0-.78-.13-1.13-.26-.28-.1-.54-.19-.8-.22-.65.32-1.22.49-1.68.49-.83,0-1.14-.54-1.41-1.02-.17-.3-.33-.58-.59-.72-.26-.46.1-.99.33-1.34l.1-.15c-.13-.61.58-.87,1.2-1.1.4-.15.81-.3,1-.55.4-.13.75-.17,1.19-.17.22,0,.44,0,.66.02.22,0,.43.02.65.02.07-.05.21-.08.37-.08.27,0,.57.09.93.3.29-.07.61-.31.91-.55.09-.07.18-.14.27-.21.13-.75.29-.86.89-1.17l.28-.15c.21-.44.03-1.05-.21-1.42l-.03-.05.02-.06c.04-.12.12-.41.21-.75.34-1.27.46-1.62.54-1.7l.02-.02.09-.04c.11-.05.17-.08.2-.14l-.28-.35c-.05-.53-.08-.98-.11-1.43-.03-.45-.06-.9-.08-1.36-.46-1.08-.23-3.1.02-5.23.29-2.52.59-5.12-.12-6.76-.1-.25-.41-.63-.65-.83-.23-.18-.72-.2-1.07-.2-.3,0-.65.02-1,.04-.4.02-.82.04-1.24.04-1.47,0-3.18-.26-3.29-2.25-.02-.47.16-.91.52-1.29.43-.45,1.08-.73,1.68-.73h.2c.87,0,1.72.25,2.54.51.71.22,1.44.44,2.18.49.22.02.43.03.64.03.85,0,1.71-.14,2.54-.27.84-.13,1.71-.27,2.58-.27.35,0,.68.02,1.01.07.53.06,1.06.16,1.59.25.82.15,1.6.28,2.39.31h.06s.04.05.04.05c.52.64.69,1.42.42,1.99-.23.48-.71.74-1.37.74-.06,0-.12,0-.19,0l-.46-.36s-.03.03-.05.05c-.17.19-.38.42-.69.42-.23.2-.5.3-.76.3-.32,0-.6-.15-.97-.33l-.13-.06c-.2.01-.35.12-.53.25-.24.18-.53.39-1.17.39-.09,0-.19,0-.3-.01l.04.2c.07.37.08.46-.17.56-.06.02-.14.06-.25.12-.02.51.05,1.01.11,1.5l.05.38c.04.42-.11,3.24-.3,3.52-.04.05-.08.1-.13.15-.1.11-.21.22-.21.34,0,3.13.16,5.88.48,8.38.08.88.12,1.47-.04,2.36-.08.64.06,1.31.19,1.95.06.32.13.64.17.96.61.42,2.68,1.68,3.15,1.79.14.04.3.05.48.05.26,0,.53-.04.8-.07.27-.03.53-.07.77-.07.81,0,1.24.4,1.39,1.28.19.09.73.37.73.69v.27c.02.77.04,1.94-1.08,2.02-.35.36-.74.55-1.15.55-.26,0-.49-.07-.74-.14-.25-.07-.52-.15-.81-.15-.15,0-.29.02-.43.05-.11.03-.23.08-.34.13-.25.1-.5.2-.79.2h-.11c-.22-.03-.41-.11-.6-.2-.18-.08-.34-.15-.52-.17-.37.26-.74.46-1.16.46-.25,0-.51-.08-.79-.25-.26.13-.48.19-.7.19-.24,0-.43-.07-.63-.15-.22-.09-.45-.17-.78-.17-.3,0-.59.1-.9.21-.31.11-.64.23-.98.23Z"/>
        <path class="cls-1" d="M156.91.91c1.6,0,3.11.89,4.72,1,.22.02.44.03.65.03,1.72,0,3.4-.53,5.12-.53.33,0,.66.02.99.07,1.36.16,2.68.52,4,.56.88,1.08.66,2.53-.86,2.53-.06,0-.12,0-.18,0l-.48-.4c-.2.2-.4.52-.72.52-.3.22-.53.3-.76.3-.32,0-.62-.17-1.04-.38-.68,0-.69.63-1.75.63-.13,0-.28,0-.45-.03.16,1,.2.6-.36.96-.04.68.08,1.32.16,1.96.04.44-.12,3.2-.28,3.44-.12.16-.36.32-.36.56,0,2.8.12,5.6.48,8.4.08.88.12,1.44-.04,2.32-.12,1,.24,2,.36,3,.52.36,2.72,1.72,3.24,1.84.16.04.34.06.51.06.52,0,1.08-.14,1.57-.14.62,0,1.12.22,1.28,1.24.2.08.72.36.72.6,0,.8.16,2.08-.96,2.16-.45.42-.81.55-1.14.55-.5,0-.95-.28-1.55-.28-.14,0-.3.02-.46.06-.37.11-.71.32-1.1.32-.03,0-.06,0-.1,0-.4-.04-.72-.32-1.12-.36-.44.27-.79.46-1.17.46-.24,0-.49-.08-.79-.26-.29.15-.51.2-.7.2-.47,0-.76-.32-1.42-.32s-1.24.44-1.88.44c-.92,0-1.8-.32-2.72-.32-.68,0-1.28-.4-1.92-.48-.75.35-1.29.49-1.69.49-1.26,0-1.19-1.33-1.95-1.73-.2-.4.28-1,.48-1.32-.16-1,1.68-.96,2.2-1.64.36-.09.73-.12,1.09-.12.44,0,.87.04,1.31.04.12-.06.24-.08.37-.08.3,0,.62.14.87.28.52-.08.92-.48,1.32-.76.2-.92.36-.88,1.16-1.32.28-.52.12-1.16-.16-1.6.12-.36.6-2.28.72-2.4.16-.08.32-.12.36-.32l-.32-.4c-.04-.92-.12-1.8-.16-2.72-1-2.36,1.24-8.92-.12-12.04-.12-.28-.44-.68-.68-.88-.23-.18-.64-.23-1.15-.23-.65,0-1.45.08-2.24.08-1.56,0-3.06-.31-3.17-2.13-.04-1.08,1.08-1.88,2.08-1.88.07,0,.13,0,.2,0M156.91.66c-.07,0-.14,0-.21,0h0c-.63,0-1.31.29-1.76.76-.38.39-.57.88-.55,1.37.12,2.13,2.01,2.37,3.42,2.37.42,0,.84-.02,1.24-.04.35-.02.69-.04,1-.04.19,0,.78,0,1,.17.22.18.51.55.6.78.7,1.62.39,4.32.12,6.7-.25,2.13-.48,4.14-.01,5.3.02.45.05.88.08,1.32.03.45.06.9.08,1.35v.08s.05.06.05.06l.21.26s-.05.02-.08.04l-.08.04-.04.02-.03.03c-.1.1-.18.33-.57,1.75-.09.34-.17.63-.21.74l-.04.11.06.1c.21.33.37.85.18,1.28-.08.04-.15.08-.21.11-.6.32-.8.45-.98,1.24-.07.05-.13.1-.2.15-.27.21-.55.42-.86.49-.35-.18-.64-.27-.91-.27-.15,0-.29.03-.42.08-.2,0-.39,0-.59-.02-.22,0-.44-.02-.66-.02-.45,0-.82.04-1.15.12l-.08.02-.05.07c-.17.22-.56.36-.95.51-.61.22-1.36.5-1.31,1.23-.02.02-.03.05-.05.08-.25.38-.63.94-.39,1.42l.04.07.07.04c.23.12.38.39.54.67.27.49.61,1.09,1.52,1.09.46,0,1.03-.16,1.73-.48.23.04.46.12.71.21.37.13.75.27,1.17.27s.86.08,1.32.16c.45.08.92.16,1.4.16.36,0,.7-.12,1.02-.23.3-.11.58-.21.86-.21.31,0,.52.08.74.17.2.08.41.16.68.16.22,0,.44-.05.69-.17.28.15.54.23.8.23.42,0,.79-.19,1.22-.45.13.03.27.09.41.15.2.09.4.18.64.2.04,0,.08,0,.12,0,.32,0,.58-.11.84-.21.11-.04.22-.09.33-.12.12-.03.26-.05.39-.05.28,0,.54.07.78.14.24.07.5.14.77.14.43,0,.83-.18,1.25-.56,1.15-.14,1.12-1.38,1.11-2.13,0-.09,0-.18,0-.27,0-.37-.5-.65-.75-.77-.17-.9-.65-1.32-1.5-1.32-.25,0-.52.03-.79.07-.26.03-.53.07-.78.07-.17,0-.32-.02-.45-.05-.44-.1-2.39-1.29-3.07-1.74-.04-.31-.1-.61-.16-.91-.13-.66-.26-1.29-.18-1.92.16-.89.12-1.48.04-2.37-.32-2.51-.48-5.25-.48-8.38,0-.07.09-.16.17-.25.05-.05.1-.11.14-.16.24-.36.36-3.29.33-3.61l-.05-.38c-.06-.46-.13-.93-.11-1.41.07-.04.13-.06.18-.08.35-.14.31-.34.25-.7,0-.01,0-.03,0-.04.05,0,.1,0,.15,0,.67,0,.99-.23,1.24-.42.16-.12.27-.2.45-.21l.07.04c.38.19.68.34,1.02.34.27,0,.54-.1.85-.31.29-.04.5-.25.66-.42l.3.25.06.05h.08c.07.01.14.01.2.01.71,0,1.24-.29,1.48-.81.29-.61.12-1.45-.43-2.12l-.07-.09h-.11c-.78-.03-1.56-.16-2.38-.31-.52-.09-1.06-.19-1.6-.25-.32-.05-.66-.07-1.02-.07-.88,0-1.75.14-2.59.27-.83.13-1.68.26-2.52.26-.21,0-.42,0-.63-.03-.73-.05-1.46-.27-2.16-.49-.83-.25-1.69-.52-2.58-.52h0Z"/>
      </g>
    </g>
  </g>
</svg>