<?xml version="1.0" encoding="UTF-8"?>
<svg id="Layer_2" data-name="Layer 2" xmlns="http://www.w3.org/2000/svg" viewBox="0 0 15.2 11.52">
  <defs>
    <style>
      .cls-1 {
        fill: #fff;
      }
    </style>
  </defs>
  <g id="Logos">
    <g id="Discord">
      <path id="Discord-Logo-White_Full" data-name="Discord-Logo-White Full" class="cls-1" d="M9.74,0c-.15.26-.28.54-.4.82-1.15-.17-2.33-.17-3.48,0-.12-.28-.25-.55-.4-.82-1.08.18-2.14.51-3.14.97C.33,3.9-.2,6.77.06,9.59c1.16.86,2.46,1.51,3.85,1.93.31-.42.59-.86.82-1.33-.45-.17-.88-.38-1.3-.62.11-.08.22-.16.32-.24,2.43,1.15,5.25,1.15,7.69,0,.1.08.21.17.32.24-.42.25-.85.45-1.3.62.24.46.51.91.82,1.33,1.39-.42,2.69-1.07,3.85-1.93.32-3.27-.54-6.11-2.26-8.62-1-.46-2.05-.78-3.13-.96h0ZM5.08,7.85c-.75,0-1.37-.68-1.37-1.52s.6-1.52,1.37-1.52,1.38.69,1.37,1.52c-.01.84-.6,1.52-1.37,1.52ZM10.13,7.85c-.75,0-1.37-.68-1.37-1.52s.6-1.52,1.37-1.52,1.38.69,1.37,1.52c-.01.84-.6,1.52-1.37,1.52Z"/>
    </g>
  </g>
</svg>