<?xml version="1.0" encoding="UTF-8"?>
<svg id="Layer_2" data-name="Layer 2" xmlns="http://www.w3.org/2000/svg" viewBox="0 0 194.53 194.75">
  <defs>
    <style>
      .cls-1 {
        fill: #fff;
      }
    </style>
  </defs>
  <g id="Layer_1-2" data-name="Layer 1">
    <path class="cls-1" d="M181.9,0c.02.07.25.2.52.24,6.91,1.03,12.11,6.98,12.11,14.07v166.33c-.01,7.43-5.65,12.89-12.63,14.1H12.4C6.65,194.75,0,188.24,0,182.5V12.29C0,5.63,6.64,1.14,12.4,0h169.5ZM40.4,27.14c-9.3,1.56-15.23,10.3-13.73,19.22s10.14,15.21,19.15,13.73c9.01-1.48,15.22-10.03,13.82-18.99s-9.91-15.52-19.24-13.96ZM134.36,103.09c2.33,4.87,2.39,10.25,2.54,15.7v47.08s28.75,0,28.75,0v-54.08c-.42-15.52-2.93-32.87-19.52-38.74-4.22-1.49-8.46-2.08-12.97-2.27-12.03-.5-23.14,4.13-29.65,15.21l-.2-12.93h-27.6s0,92.81,0,92.81h28.75s0-46.58,0-46.58c.11-8.77,1.44-19.68,11.29-22.41,6.8-1.88,15.17-1.01,18.61,6.21ZM57.52,165.84v-92.76s-28.81-.02-28.81-.02v92.8s28.81-.02,28.81-.02Z"/>
  </g>
</svg>