<?xml version="1.0" encoding="UTF-8" standalone="no"?>
<svg
   version="1.0"
   width="800.000000pt"
   height="173.000000pt"
   viewBox="0 0 800.000000 173.000000"
   preserveAspectRatio="xMidYMid meet"
   id="svg20"
   sodipodi:docname="YouTube_2024_(Print).svg"
   inkscape:version="1.2.2 (b0a8486541, 2022-12-01)"
   xmlns:inkscape="http://www.inkscape.org/namespaces/inkscape"
   xmlns:sodipodi="http://sodipodi.sourceforge.net/DTD/sodipodi-0.dtd"
   xmlns="http://www.w3.org/2000/svg"
   xmlns:svg="http://www.w3.org/2000/svg">
  <defs
     id="defs24" />
  <sodipodi:namedview
     id="namedview22"
     pagecolor="#ffffff"
     bordercolor="#000000"
     borderopacity="0.25"
     inkscape:showpageshadow="2"
     inkscape:pageopacity="0.0"
     inkscape:pagecheckerboard="0"
     inkscape:deskcolor="#d1d1d1"
     inkscape:document-units="pt"
     showgrid="false"
     inkscape:zoom="0.86625"
     inkscape:cx="533.91053"
     inkscape:cy="116.01732"
     inkscape:window-width="1187"
     inkscape:window-height="582"
     inkscape:window-x="0"
     inkscape:window-y="0"
     inkscape:window-maximized="1"
     inkscape:current-layer="svg20" />
  <g
     transform="translate(0.000000,173.000000) scale(0.100000,-0.100000)"
     fill="#000000"
     stroke="none"
     id="g18"
     style="fill:#ffffff">
    <path
       d="M721 1720 c-224 -10 -379 -26 -446 -45 -98 -28 -172 -94 -213 -188 -43 -101 -71 -529 -54 -829 23 -392 59 -500 191 -571 117 -64 350 -82 1066 -81 653 0 902 16 1017 66 62 27 141 112 162 175 40 122 50 244 50 618 0 489 -20 615 -116 720 -77 85 -143 105 -418 125 -182 14 -1010 20 -1239 10z m592 -671 c166 -95 306 -175 310 -179 7 -6 -601 -360 -618 -360 -3 0 -5 160 -5 355 0 195 2 355 5 355 3 0 141 -77 308 -171z"
       id="path2"
       style="fill:#ffffff" />
    <path
       d="M6500 850 l0 -761 97 3 98 3 8 53 9 52 48 -43 c53 -48 116 -72 190 -72 64 1 95 11 135 47 82 71 105 163 112 448 9 337 -17 493 -92 558 -46 41 -96 56 -166 48 -76 -7 -139 -38 -184 -88 -20 -22 -38 -38 -40 -36 -1 1 1 122 5 268 5 146 6 268 3 272 -2 5 -53 8 -114 8 l-109 0 0 -760z m412 162 c10 -8 25 -35 35 -61 16 -40 18 -80 18 -306 0 -281 -7 -333 -52 -381 -22 -24 -30 -26 -79 -22 -34 3 -65 13 -82 25 l-27 20 -3 323 c-2 315 -2 323 19 357 39 63 125 86 171 45z"
       id="path4"
       style="fill:#ffffff" />
    <path
       d="M2693 1533 c2 -10 67 -220 143 -468 l138 -450 6 -260 5 -260 113 -3 112 -3 0 244 0 244 100 329 c98 319 185 600 197 630 4 12 -14 14 -111 14 l-116 0 -6 -27 c-3 -16 -32 -131 -64 -258 -32 -126 -68 -277 -80 -335 -34 -163 -34 -163 -59 -33 -10 48 -49 215 -87 371 l-69 282 -113 0 c-104 0 -114 -2 -109 -17z"
       id="path6"
       style="fill:#ffffff" />
    <path
       d="M4930 1460 l0 -90 135 0 135 0 0 -640 0 -641 112 3 112 3 -3 638 -3 637 136 0 136 0 0 90 0 90 -380 0 -380 0 0 -90z"
       id="path8"
       style="fill:#ffffff" />
    <path
       d="M3722 1179 c-138 -24 -214 -107 -248 -270 -12 -59 -15 -124 -12 -319 4 -221 7 -252 27 -314 30 -91 91 -154 174 -180 91 -28 243 -20 320 18 129 62 166 179 167 513 0 281 -26 399 -105 478 -66 66 -198 97 -323 74z m145 -159 c2 0 13 -19 25 -42 22 -41 23 -55 26 -310 4 -294 -3 -359 -45 -408 -21 -25 -32 -30 -69 -30 -35 0 -50 5 -69 26 -40 43 -47 109 -43 407 3 253 4 275 24 312 24 47 70 68 119 54 16 -5 31 -9 32 -9z"
       id="path10"
       style="fill:#ffffff" />
    <path
       d="M7605 1180 c-142 -22 -225 -108 -254 -264 -17 -90 -14 -506 4 -590 36 -170 135 -246 320 -246 104 0 175 21 226 67 55 49 79 102 86 182 l6 68 -69 6 c-136 13 -130 15 -137 -52 -8 -92 -37 -123 -112 -123 -83 0 -107 44 -113 209 l-4 123 221 0 221 0 0 134 c0 246 -27 356 -106 425 -61 54 -179 79 -289 61z m128 -160 c37 -29 47 -76 47 -215 l0 -120 -110 3 -110 3 0 99 c0 182 30 250 108 250 24 0 49 -8 65 -20z"
       id="path12"
       style="fill:#ffffff" />
    <path
       d="M4300 722 c0 -481 3 -515 52 -577 31 -40 93 -65 164 -65 91 0 150 24 215 90 l57 56 6 -35 c3 -20 6 -51 6 -69 l0 -33 88 3 c75 3 87 5 86 21 0 9 -1 251 -2 537 l-2 521 -112 -3 -113 -3 4 -427 4 -427 -30 -29 c-40 -41 -102 -59 -142 -43 -16 7 -33 20 -38 29 -4 10 -10 215 -13 457 l-5 440 -112 3 -113 3 0 -449z"
       id="path14"
       style="fill:#ffffff" />
    <path
       d="M5644 1155 c-3 -8 -4 -214 -2 -457 4 -387 7 -449 22 -488 34 -89 95 -130 194 -130 100 0 158 24 224 91 l58 60 0 -39 c0 -22 3 -54 6 -71 l7 -31 83 0 84 0 0 540 0 540 -115 0 -115 0 0 -440 0 -440 -39 -25 c-80 -54 -150 -40 -170 32 -7 24 -11 196 -11 456 l0 417 -110 0 c-88 0 -112 -3 -116 -15z"
       id="path16"
       style="fill:#ffffff" />
  </g>
</svg>
