<?xml version="1.0" encoding="UTF-8" standalone="no"?>
<!DOCTYPE svg PUBLIC "-//W3C//DTD SVG 1.1//EN" "http://www.w3.org/Graphics/SVG/1.1/DTD/svg11.dtd">
<svg width="100%" height="100%" viewBox="0 0 1188 327" version="1.1" xmlns="http://www.w3.org/2000/svg" xmlns:xlink="http://www.w3.org/1999/xlink" xml:space="preserve" xmlns:serif="http://www.serif.com/" style="fill-rule:evenodd;clip-rule:evenodd;stroke-linejoin:round;stroke-miterlimit:2;">
    <g transform="matrix(1,0,0,1,-2011.089639,-2344.01767)">
        <g transform="matrix(0.78313,0,0,0.78313,2015.976948,-369.076264)">
            <g transform="matrix(4.166667,0,0,4.166667,-146.526204,-206.534141)">
                <path d="M133.99,968.37C132.38,975.34 125.22,981.04 118.07,981.04L44.07,981.04C36.92,981.04 32.39,975.34 33.99,968.37L51.23,893.7C52.84,886.73 60,881.03 67.15,881.03L141.15,881.03C148.3,881.03 152.83,886.73 151.23,893.7L133.99,968.37Z" style="fill:white;fill-rule:nonzero;"/>
            </g>
            <g transform="matrix(4.166667,0,0,4.166667,-146.526204,-206.534141)">
                <path d="M313.15,881.04C306,881.04 298.83,886.74 297.23,893.71L279.99,968.38C278.38,975.35 282.92,981.05 290.07,981.05L364.07,981.05C371.22,981.05 378.39,975.35 379.99,968.38L397.23,893.71C398.84,886.74 394.3,881.04 387.15,881.04L313.15,881.04ZM361.7,945.37C360.09,952.34 352.93,958.04 345.78,958.04L318.99,958.04C311.84,958.04 307.31,952.34 308.91,945.37L315.53,916.7C317.14,909.73 324.3,904.03 331.45,904.03L358.24,904.03C365.39,904.03 369.92,909.73 368.32,916.7L361.7,945.37Z" style="fill:white;fill-rule:nonzero;"/>
            </g>
            <g transform="matrix(4.166667,0,0,4.166667,-146.526204,-206.534141)">
                <path d="M256.99,968.37C255.38,975.34 248.22,981.04 241.07,981.04L167.07,981.04C159.92,981.04 155.39,975.34 156.99,968.37L174.23,893.7C175.84,886.73 183,881.03 190.15,881.03L264.15,881.03C271.3,881.03 275.83,886.73 274.23,893.7L256.99,968.37Z" style="fill:white;fill-rule:nonzero;"/>
            </g>
        </g>
    </g>
</svg>
